<svg width="367" height="55" viewBox="0 0 367 55" fill="none" xmlns="http://www.w3.org/2000/svg">
<g clip-path="url(#clip0_34_2463)">
<path d="M19.4062 19.5938H3.59375C3.2125 19.5938 2.84687 19.7452 2.57728 20.0148C2.3077 20.2844 2.15625 20.65 2.15625 21.0312V33.9688C2.15625 34.35 2.3077 34.7156 2.57728 34.9852C2.84687 35.2548 3.2125 35.4062 3.59375 35.4062H19.4062C19.7875 35.4062 20.1531 35.2548 20.4227 34.9852C20.6923 34.7156 20.8438 34.35 20.8438 33.9688V21.0312C20.8438 20.65 20.6923 20.2844 20.4227 20.0148C20.1531 19.7452 19.7875 19.5938 19.4062 19.5938ZM11.5 28.2188C10.3566 28.2176 9.26041 27.7628 8.45192 26.9543C7.64342 26.1458 7.18869 25.0496 7.1875 23.9062C7.1875 23.7156 7.26323 23.5328 7.39802 23.398C7.53281 23.2632 7.71563 23.1875 7.90625 23.1875C8.09687 23.1875 8.27969 23.2632 8.41448 23.398C8.54927 23.5328 8.625 23.7156 8.625 23.9062C8.625 24.6687 8.9279 25.4 9.46707 25.9392C10.0062 26.4783 10.7375 26.7812 11.5 26.7812C12.2625 26.7812 12.9938 26.4783 13.5329 25.9392C14.0721 25.4 14.375 24.6687 14.375 23.9062C14.375 23.7156 14.4507 23.5328 14.5855 23.398C14.7203 23.2632 14.9031 23.1875 15.0938 23.1875C15.2844 23.1875 15.4672 23.2632 15.602 23.398C15.7368 23.5328 15.8125 23.7156 15.8125 23.9062C15.8113 25.0496 15.3566 26.1458 14.5481 26.9543C13.7396 27.7628 12.6434 28.2176 11.5 28.2188Z" fill="#A4074D"/>
</g>
<rect x="47.5" y="0.5" width="319" height="54" rx="7.5" fill="white"/>
<rect x="47.5" y="0.5" width="319" height="54" rx="7.5" stroke="#EBEFF6"/>
<g opacity="0.4" clip-path="url(#clip1_34_2463)">
<path d="M73.0625 33.25C77.032 33.25 80.25 30.032 80.25 26.0625C80.25 22.093 77.032 18.875 73.0625 18.875C69.093 18.875 65.875 22.093 65.875 26.0625C65.875 30.032 69.093 33.25 73.0625 33.25Z" stroke="#1A2434" stroke-width="1.5" stroke-linecap="round" stroke-linejoin="round"/>
<path d="M78.145 31.145L83.1251 36.1251" stroke="#1A2434" stroke-width="1.5" stroke-linecap="round" stroke-linejoin="round"/>
</g>
<path opacity="0.4" d="M98.4 33.66C97.5253 33.66 96.7787 33.5 96.16 33.18C95.5413 32.86 94.992 32.396 94.512 31.788L95.536 30.764C95.888 31.2547 96.2933 31.628 96.752 31.884C97.2107 32.1293 97.776 32.252 98.448 32.252C99.1093 32.252 99.6373 32.108 100.032 31.82C100.437 31.532 100.64 31.1373 100.64 30.636C100.64 30.22 100.544 29.884 100.352 29.628C100.16 29.372 99.8987 29.164 99.568 29.004C99.248 28.8333 98.896 28.684 98.512 28.556C98.128 28.4173 97.744 28.2733 97.36 28.124C96.976 27.964 96.624 27.772 96.304 27.548C95.984 27.3133 95.7227 27.0093 95.52 26.636C95.328 26.2627 95.232 25.7933 95.232 25.228C95.232 24.5987 95.3813 24.0653 95.68 23.628C95.9893 23.18 96.4053 22.8387 96.928 22.604C97.4613 22.3587 98.0587 22.236 98.72 22.236C99.4453 22.236 100.096 22.38 100.672 22.668C101.248 22.9453 101.717 23.3133 102.08 23.772L101.056 24.796C100.725 24.412 100.368 24.124 99.984 23.932C99.6107 23.74 99.1787 23.644 98.688 23.644C98.0907 23.644 97.616 23.7773 97.264 24.044C96.912 24.3 96.736 24.6627 96.736 25.132C96.736 25.5053 96.832 25.8093 97.024 26.044C97.2267 26.268 97.488 26.46 97.808 26.62C98.128 26.78 98.48 26.9293 98.864 27.068C99.2587 27.196 99.648 27.34 100.032 27.5C100.416 27.66 100.768 27.8627 101.088 28.108C101.408 28.3533 101.664 28.6733 101.856 29.068C102.059 29.452 102.16 29.9373 102.16 30.524C102.16 31.5053 101.819 32.2733 101.136 32.828C100.464 33.3827 99.552 33.66 98.4 33.66ZM107.342 33.66C106.584 33.66 105.902 33.4893 105.294 33.148C104.686 32.796 104.206 32.3213 103.854 31.724C103.502 31.1267 103.326 30.4493 103.326 29.692C103.326 28.9453 103.496 28.2733 103.838 27.676C104.19 27.0787 104.659 26.6093 105.246 26.268C105.843 25.916 106.51 25.74 107.246 25.74C107.95 25.74 108.568 25.9 109.102 26.22C109.646 26.54 110.067 26.9827 110.366 27.548C110.675 28.1133 110.83 28.7533 110.83 29.468C110.83 29.5747 110.824 29.692 110.814 29.82C110.803 29.9373 110.782 30.076 110.75 30.236H104.334V29.036H109.982L109.454 29.5C109.454 28.988 109.363 28.556 109.182 28.204C109 27.8413 108.744 27.564 108.414 27.372C108.083 27.1693 107.683 27.068 107.214 27.068C106.723 27.068 106.291 27.1747 105.918 27.388C105.544 27.6013 105.256 27.9 105.054 28.284C104.851 28.668 104.75 29.1213 104.75 29.644C104.75 30.1773 104.856 30.6467 105.07 31.052C105.283 31.4467 105.587 31.756 105.982 31.98C106.376 32.1933 106.83 32.3 107.342 32.3C107.768 32.3 108.158 32.2253 108.51 32.076C108.872 31.9267 109.182 31.7027 109.438 31.404L110.366 32.348C110.003 32.7747 109.555 33.1 109.022 33.324C108.499 33.548 107.939 33.66 107.342 33.66ZM115.632 33.66C114.938 33.66 114.309 33.4893 113.744 33.148C113.178 32.796 112.73 32.3213 112.4 31.724C112.08 31.1267 111.92 30.4547 111.92 29.708C111.92 28.9613 112.08 28.2893 112.4 27.692C112.73 27.0947 113.173 26.62 113.728 26.268C114.293 25.916 114.928 25.74 115.632 25.74C116.208 25.74 116.72 25.8627 117.168 26.108C117.626 26.3427 117.994 26.6733 118.272 27.1C118.549 27.516 118.704 28.0013 118.736 28.556V30.844C118.704 31.388 118.549 31.8733 118.272 32.3C118.005 32.7267 117.642 33.0627 117.184 33.308C116.736 33.5427 116.218 33.66 115.632 33.66ZM115.872 32.3C116.586 32.3 117.162 32.06 117.6 31.58C118.037 31.0893 118.256 30.4653 118.256 29.708C118.256 29.1853 118.154 28.732 117.952 28.348C117.76 27.9533 117.482 27.6493 117.12 27.436C116.757 27.212 116.336 27.1 115.856 27.1C115.376 27.1 114.949 27.212 114.576 27.436C114.213 27.66 113.925 27.9693 113.712 28.364C113.509 28.748 113.408 29.1907 113.408 29.692C113.408 30.204 113.509 30.6573 113.712 31.052C113.925 31.436 114.218 31.74 114.592 31.964C114.965 32.188 115.392 32.3 115.872 32.3ZM118.16 33.5V31.452L118.432 29.596L118.16 27.756V25.9H119.616V33.5H118.16ZM121.712 33.5V25.9H123.152V33.5H121.712ZM123.152 29.164L122.608 28.924C122.608 27.9533 122.832 27.18 123.28 26.604C123.728 26.028 124.374 25.74 125.216 25.74C125.6 25.74 125.947 25.8093 126.256 25.948C126.566 26.076 126.854 26.2947 127.12 26.604L126.176 27.58C126.016 27.4093 125.84 27.2867 125.648 27.212C125.456 27.1373 125.232 27.1 124.976 27.1C124.443 27.1 124.006 27.2707 123.664 27.612C123.323 27.9533 123.152 28.4707 123.152 29.164ZM131.356 33.66C130.609 33.66 129.932 33.484 129.324 33.132C128.727 32.78 128.252 32.3053 127.9 31.708C127.559 31.1 127.388 30.428 127.388 29.692C127.388 28.9453 127.559 28.2733 127.9 27.676C128.252 27.0787 128.727 26.6093 129.324 26.268C129.932 25.916 130.609 25.74 131.356 25.74C131.943 25.74 132.487 25.852 132.988 26.076C133.489 26.2893 133.921 26.604 134.284 27.02L133.324 27.98C133.089 27.7027 132.801 27.4947 132.46 27.356C132.129 27.2067 131.761 27.132 131.356 27.132C130.876 27.132 130.449 27.244 130.076 27.468C129.703 27.6813 129.409 27.98 129.196 28.364C128.983 28.748 128.876 29.1907 128.876 29.692C128.876 30.1933 128.983 30.636 129.196 31.02C129.409 31.404 129.703 31.708 130.076 31.932C130.449 32.156 130.876 32.268 131.356 32.268C131.761 32.268 132.129 32.1987 132.46 32.06C132.801 31.9107 133.095 31.6973 133.34 31.42L134.284 32.38C133.932 32.7853 133.5 33.1 132.988 33.324C132.487 33.548 131.943 33.66 131.356 33.66ZM141.088 33.5V29.068C141.088 28.492 140.907 28.0173 140.544 27.644C140.182 27.2707 139.712 27.084 139.136 27.084C138.752 27.084 138.411 27.1693 138.112 27.34C137.814 27.5107 137.579 27.7453 137.408 28.044C137.238 28.3427 137.152 28.684 137.152 29.068L136.56 28.732C136.56 28.156 136.688 27.644 136.944 27.196C137.2 26.748 137.558 26.396 138.016 26.14C138.475 25.8733 138.992 25.74 139.568 25.74C140.144 25.74 140.651 25.868 141.088 26.124C141.536 26.38 141.888 26.7373 142.144 27.196C142.4 27.6547 142.528 28.1827 142.528 28.78V33.5H141.088ZM135.712 33.5V22.076H137.152V33.5H135.712Z" fill="#1A2434"/>
<defs>
<clipPath id="clip0_34_2463">
<rect width="23" height="23" fill="white" transform="translate(0 16)"/>
</clipPath>
<clipPath id="clip1_34_2463">
<rect width="23" height="23" fill="white" transform="translate(63 16)"/>
</clipPath>
</defs>
</svg>
