<svg width="308" height="177" viewBox="0 0 308 177" fill="none" xmlns="http://www.w3.org/2000/svg">
<g filter="url(#filter0_d_8_1044)">
<path d="M116.192 89V78.504H94.304V71.208L115.68 41.32H124.768V71.208H131.744V78.504H124.768V89H116.192ZM100.704 74.344L99.168 71.208H116.192V48.168L118.432 48.872L100.704 74.344ZM152.883 89.768C150.366 89.768 147.955 89.2987 145.651 88.36C143.39 87.4213 141.427 86.0987 139.763 84.392C138.142 82.6427 137.032 80.5733 136.435 78.184L143.987 75.496C144.712 77.672 145.886 79.2933 147.507 80.36C149.128 81.384 150.92 81.896 152.883 81.896C154.504 81.896 155.934 81.5547 157.171 80.872C158.451 80.1467 159.432 79.1653 160.115 77.928C160.798 76.648 161.139 75.176 161.139 73.512C161.139 71.848 160.776 70.3973 160.051 69.16C159.368 67.9227 158.408 66.9627 157.171 66.28C155.934 65.5547 154.504 65.192 152.883 65.192C151.219 65.192 149.704 65.5547 148.339 66.28C147.016 67.0053 146.056 68.0507 145.459 69.416L138.355 67.816L142.131 41.32H168.115V48.68H145.587L148.851 44.904L146.163 64.872L143.667 62.824C144.862 61.0747 146.312 59.7947 148.019 58.984C149.768 58.1733 151.88 57.768 154.355 57.768C157.512 57.768 160.243 58.4507 162.547 59.816C164.894 61.1813 166.707 63.0373 167.987 65.384C169.267 67.7307 169.907 70.44 169.907 73.512C169.907 76.584 169.16 79.3573 167.667 81.832C166.174 84.3067 164.147 86.248 161.587 87.656C159.027 89.064 156.126 89.768 152.883 89.768Z" fill="#1A2434"/>
<path d="M190.786 89V76.584H178.37V69.352H190.786V57H198.018V69.352H210.37V76.584H198.018V89H190.786Z" fill="#A4074D"/>
<path opacity="0.7" d="M96.5358 132H94.7745C94.6703 131.493 94.488 131.048 94.2276 130.665C93.9719 130.281 93.6594 129.959 93.2901 129.699C92.9255 129.434 92.5207 129.235 92.0756 129.102C91.6305 128.97 91.1665 128.903 90.6836 128.903C89.8029 128.903 89.0051 129.126 88.2901 129.571C87.5799 130.016 87.0141 130.672 86.5927 131.538C86.176 132.405 85.9677 133.468 85.9677 134.727C85.9677 135.987 86.176 137.05 86.5927 137.916C87.0141 138.783 87.5799 139.438 88.2901 139.884C89.0051 140.329 89.8029 140.551 90.6836 140.551C91.1665 140.551 91.6305 140.485 92.0756 140.352C92.5207 140.22 92.9255 140.023 93.2901 139.763C93.6594 139.498 93.9719 139.173 94.2276 138.79C94.488 138.402 94.6703 137.956 94.7745 137.455H96.5358C96.4033 138.198 96.1618 138.863 95.8114 139.45C95.461 140.037 95.0254 140.537 94.5046 140.949C93.9838 141.356 93.399 141.666 92.7503 141.879C92.1064 142.092 91.4175 142.199 90.6836 142.199C89.443 142.199 88.3398 141.896 87.3739 141.29C86.408 140.684 85.648 139.822 85.0941 138.705C84.5401 137.587 84.2631 136.261 84.2631 134.727C84.2631 133.193 84.5401 131.867 85.0941 130.75C85.648 129.633 86.408 128.771 87.3739 128.165C88.3398 127.559 89.443 127.256 90.6836 127.256C91.4175 127.256 92.1064 127.362 92.7503 127.575C93.399 127.788 93.9838 128.101 94.5046 128.513C95.0254 128.92 95.461 129.417 95.8114 130.004C96.1618 130.587 96.4033 131.252 96.5358 132ZM101.231 127.455V142H99.5548V127.455H101.231ZM107.911 142.256C107.22 142.256 106.592 142.125 106.029 141.865C105.466 141.6 105.018 141.219 104.687 140.722C104.355 140.22 104.19 139.614 104.19 138.903C104.19 138.278 104.313 137.772 104.559 137.384C104.805 136.991 105.134 136.683 105.546 136.46C105.958 136.238 106.413 136.072 106.91 135.963C107.412 135.849 107.916 135.759 108.422 135.693C109.085 135.608 109.623 135.544 110.035 135.501C110.451 135.454 110.754 135.376 110.944 135.267C111.138 135.158 111.235 134.969 111.235 134.699V134.642C111.235 133.941 111.043 133.397 110.66 133.009C110.281 132.62 109.706 132.426 108.934 132.426C108.134 132.426 107.506 132.601 107.052 132.952C106.597 133.302 106.278 133.676 106.093 134.074L104.502 133.506C104.786 132.843 105.165 132.327 105.638 131.957C106.117 131.583 106.637 131.323 107.201 131.176C107.769 131.025 108.328 130.949 108.877 130.949C109.227 130.949 109.63 130.991 110.084 131.077C110.544 131.157 110.986 131.325 111.413 131.581C111.843 131.837 112.201 132.223 112.485 132.739C112.769 133.255 112.911 133.946 112.911 134.812V142H111.235V140.523H111.15C111.036 140.759 110.847 141.013 110.582 141.283C110.316 141.553 109.964 141.782 109.523 141.972C109.083 142.161 108.546 142.256 107.911 142.256ZM108.167 140.75C108.83 140.75 109.388 140.62 109.843 140.359C110.302 140.099 110.648 139.763 110.88 139.351C111.117 138.939 111.235 138.506 111.235 138.051V136.517C111.164 136.602 111.008 136.68 110.766 136.751C110.529 136.818 110.255 136.877 109.942 136.929C109.635 136.976 109.334 137.019 109.04 137.057C108.752 137.09 108.517 137.118 108.337 137.142C107.902 137.199 107.494 137.291 107.116 137.419C106.742 137.542 106.439 137.729 106.207 137.98C105.979 138.226 105.866 138.562 105.866 138.989C105.866 139.571 106.081 140.011 106.512 140.31C106.948 140.603 107.499 140.75 108.167 140.75ZM124.098 133.534L122.592 133.96C122.497 133.709 122.358 133.465 122.173 133.229C121.993 132.987 121.747 132.788 121.434 132.632C121.122 132.476 120.722 132.398 120.234 132.398C119.566 132.398 119.01 132.552 118.565 132.859C118.125 133.162 117.905 133.548 117.905 134.017C117.905 134.434 118.056 134.763 118.359 135.004C118.662 135.246 119.136 135.447 119.78 135.608L121.399 136.006C122.374 136.242 123.101 136.605 123.579 137.092C124.057 137.575 124.297 138.198 124.297 138.96C124.297 139.585 124.117 140.144 123.757 140.636C123.402 141.129 122.905 141.517 122.265 141.801C121.626 142.085 120.883 142.227 120.035 142.227C118.923 142.227 118.002 141.986 117.272 141.503C116.543 141.02 116.082 140.314 115.887 139.386L117.478 138.989C117.63 139.576 117.916 140.016 118.338 140.31C118.764 140.603 119.32 140.75 120.007 140.75C120.788 140.75 121.408 140.584 121.868 140.253C122.332 139.917 122.564 139.514 122.564 139.045C122.564 138.667 122.431 138.349 122.166 138.094C121.901 137.833 121.494 137.639 120.944 137.511L119.126 137.085C118.127 136.848 117.393 136.482 116.924 135.984C116.46 135.482 116.228 134.855 116.228 134.102C116.228 133.487 116.401 132.942 116.747 132.469C117.097 131.995 117.573 131.624 118.174 131.354C118.78 131.084 119.467 130.949 120.234 130.949C121.314 130.949 122.161 131.186 122.777 131.659C123.397 132.133 123.837 132.758 124.098 133.534ZM134.947 133.534L133.441 133.96C133.347 133.709 133.207 133.465 133.022 133.229C132.842 132.987 132.596 132.788 132.284 132.632C131.971 132.476 131.571 132.398 131.083 132.398C130.416 132.398 129.859 132.552 129.414 132.859C128.974 133.162 128.754 133.548 128.754 134.017C128.754 134.434 128.905 134.763 129.208 135.004C129.511 135.246 129.985 135.447 130.629 135.608L132.248 136.006C133.223 136.242 133.95 136.605 134.428 137.092C134.907 137.575 135.146 138.198 135.146 138.96C135.146 139.585 134.966 140.144 134.606 140.636C134.251 141.129 133.754 141.517 133.115 141.801C132.475 142.085 131.732 142.227 130.884 142.227C129.772 142.227 128.851 141.986 128.122 141.503C127.392 141.02 126.931 140.314 126.737 139.386L128.328 138.989C128.479 139.576 128.766 140.016 129.187 140.31C129.613 140.603 130.169 140.75 130.856 140.75C131.637 140.75 132.258 140.584 132.717 140.253C133.181 139.917 133.413 139.514 133.413 139.045C133.413 138.667 133.28 138.349 133.015 138.094C132.75 137.833 132.343 137.639 131.794 137.511L129.975 137.085C128.976 136.848 128.242 136.482 127.774 135.984C127.31 135.482 127.078 134.855 127.078 134.102C127.078 133.487 127.25 132.942 127.596 132.469C127.946 131.995 128.422 131.624 129.024 131.354C129.63 131.084 130.316 130.949 131.083 130.949C132.163 130.949 133.01 131.186 133.626 131.659C134.246 132.133 134.686 132.758 134.947 133.534ZM151.821 133.534L150.315 133.96C150.221 133.709 150.081 133.465 149.896 133.229C149.716 132.987 149.47 132.788 149.158 132.632C148.845 132.476 148.445 132.398 147.957 132.398C147.29 132.398 146.734 132.552 146.288 132.859C145.848 133.162 145.628 133.548 145.628 134.017C145.628 134.434 145.779 134.763 146.082 135.004C146.386 135.246 146.859 135.447 147.503 135.608L149.122 136.006C150.098 136.242 150.824 136.605 151.303 137.092C151.781 137.575 152.02 138.198 152.02 138.96C152.02 139.585 151.84 140.144 151.48 140.636C151.125 141.129 150.628 141.517 149.989 141.801C149.35 142.085 148.606 142.227 147.759 142.227C146.646 142.227 145.725 141.986 144.996 141.503C144.267 141.02 143.805 140.314 143.611 139.386L145.202 138.989C145.353 139.576 145.64 140.016 146.061 140.31C146.487 140.603 147.044 140.75 147.73 140.75C148.511 140.75 149.132 140.584 149.591 140.253C150.055 139.917 150.287 139.514 150.287 139.045C150.287 138.667 150.154 138.349 149.889 138.094C149.624 137.833 149.217 137.639 148.668 137.511L146.85 137.085C145.85 136.848 145.117 136.482 144.648 135.984C144.184 135.482 143.952 134.855 143.952 134.102C143.952 133.487 144.125 132.942 144.47 132.469C144.821 131.995 145.297 131.624 145.898 131.354C146.504 131.084 147.19 130.949 147.957 130.949C149.037 130.949 149.885 131.186 150.5 131.659C151.12 132.133 151.561 132.758 151.821 133.534ZM161.818 137.54V131.091H163.494V142H161.818V140.153H161.704C161.449 140.707 161.051 141.179 160.511 141.567C159.971 141.95 159.29 142.142 158.466 142.142C157.784 142.142 157.178 141.993 156.648 141.695C156.117 141.392 155.701 140.937 155.398 140.331C155.095 139.72 154.943 138.951 154.943 138.023V131.091H156.619V137.909C156.619 138.705 156.842 139.339 157.287 139.812C157.737 140.286 158.31 140.523 159.006 140.523C159.422 140.523 159.846 140.416 160.277 140.203C160.712 139.99 161.077 139.663 161.371 139.223C161.669 138.783 161.818 138.222 161.818 137.54ZM167.191 142V127.455H168.868V132.824H169.01C169.133 132.634 169.303 132.393 169.521 132.099C169.744 131.801 170.061 131.536 170.473 131.304C170.889 131.067 171.453 130.949 172.163 130.949C173.082 130.949 173.891 131.179 174.592 131.638C175.293 132.097 175.84 132.748 176.233 133.591C176.626 134.434 176.822 135.428 176.822 136.574C176.822 137.729 176.626 138.731 176.233 139.578C175.84 140.421 175.295 141.074 174.599 141.538C173.903 141.998 173.101 142.227 172.191 142.227C171.491 142.227 170.93 142.111 170.508 141.879C170.087 141.643 169.762 141.375 169.535 141.077C169.308 140.774 169.133 140.523 169.01 140.324H168.811V142H167.191ZM168.839 136.545C168.839 137.369 168.96 138.096 169.201 138.726C169.443 139.351 169.796 139.841 170.26 140.196C170.724 140.546 171.292 140.722 171.964 140.722C172.665 140.722 173.25 140.537 173.718 140.168C174.192 139.794 174.547 139.292 174.784 138.662C175.025 138.027 175.146 137.322 175.146 136.545C175.146 135.778 175.028 135.087 174.791 134.472C174.559 133.851 174.206 133.361 173.733 133.001C173.264 132.637 172.674 132.455 171.964 132.455C171.282 132.455 170.709 132.627 170.245 132.973C169.781 133.314 169.431 133.792 169.194 134.408C168.958 135.018 168.839 135.731 168.839 136.545ZM179.786 131.091H181.462V142.795C181.462 143.468 181.346 144.05 181.114 144.543C180.887 145.035 180.541 145.416 180.077 145.686C179.618 145.956 179.038 146.091 178.337 146.091C178.28 146.091 178.224 146.091 178.167 146.091C178.11 146.091 178.053 146.091 177.996 146.091V144.528C178.053 144.528 178.105 144.528 178.153 144.528C178.2 144.528 178.252 144.528 178.309 144.528C178.82 144.528 179.194 144.377 179.431 144.074C179.668 143.776 179.786 143.349 179.786 142.795V131.091ZM180.61 129.273C180.283 129.273 180.001 129.161 179.765 128.939C179.533 128.716 179.417 128.449 179.417 128.136C179.417 127.824 179.533 127.556 179.765 127.334C180.001 127.111 180.283 127 180.61 127C180.937 127 181.216 127.111 181.448 127.334C181.685 127.556 181.803 127.824 181.803 128.136C181.803 128.449 181.685 128.716 181.448 128.939C181.216 129.161 180.937 129.273 180.61 129.273ZM189.506 142.227C188.455 142.227 187.548 141.995 186.786 141.531C186.028 141.062 185.443 140.409 185.032 139.571C184.624 138.728 184.421 137.748 184.421 136.631C184.421 135.513 184.624 134.528 185.032 133.676C185.443 132.819 186.016 132.152 186.75 131.673C187.489 131.19 188.351 130.949 189.336 130.949C189.904 130.949 190.465 131.044 191.019 131.233C191.573 131.422 192.077 131.73 192.532 132.156C192.986 132.578 193.348 133.136 193.618 133.832C193.888 134.528 194.023 135.385 194.023 136.403V137.114H185.614V135.665H192.318C192.318 135.049 192.195 134.5 191.949 134.017C191.708 133.534 191.362 133.153 190.912 132.874C190.467 132.594 189.942 132.455 189.336 132.455C188.668 132.455 188.09 132.62 187.603 132.952C187.12 133.278 186.748 133.705 186.488 134.23C186.227 134.756 186.097 135.319 186.097 135.92V136.886C186.097 137.71 186.239 138.409 186.523 138.982C186.812 139.55 187.212 139.983 187.723 140.281C188.235 140.575 188.829 140.722 189.506 140.722C189.946 140.722 190.344 140.66 190.699 140.537C191.059 140.409 191.369 140.22 191.63 139.969C191.89 139.713 192.091 139.396 192.233 139.017L193.853 139.472C193.682 140.021 193.396 140.504 192.993 140.92C192.591 141.332 192.094 141.654 191.502 141.886C190.91 142.114 190.245 142.227 189.506 142.227ZM201.405 142.227C200.382 142.227 199.501 141.986 198.763 141.503C198.024 141.02 197.456 140.355 197.058 139.507C196.66 138.66 196.461 137.691 196.461 136.602C196.461 135.494 196.665 134.517 197.072 133.669C197.484 132.817 198.057 132.152 198.791 131.673C199.53 131.19 200.391 130.949 201.376 130.949C202.143 130.949 202.835 131.091 203.45 131.375C204.066 131.659 204.57 132.057 204.963 132.568C205.356 133.08 205.6 133.676 205.694 134.358H204.018C203.89 133.861 203.606 133.42 203.166 133.037C202.73 132.649 202.143 132.455 201.405 132.455C200.751 132.455 200.178 132.625 199.686 132.966C199.198 133.302 198.817 133.778 198.542 134.393C198.272 135.004 198.138 135.722 198.138 136.545C198.138 137.388 198.27 138.122 198.535 138.747C198.805 139.372 199.184 139.857 199.672 140.203C200.164 140.549 200.742 140.722 201.405 140.722C201.84 140.722 202.236 140.646 202.591 140.494C202.946 140.343 203.246 140.125 203.493 139.841C203.739 139.557 203.914 139.216 204.018 138.818H205.694C205.6 139.462 205.365 140.042 204.991 140.558C204.622 141.07 204.132 141.477 203.521 141.78C202.915 142.078 202.21 142.227 201.405 142.227ZM213.289 131.091V132.511H207.636V131.091H213.289ZM209.283 128.477H210.959V138.875C210.959 139.348 211.028 139.704 211.165 139.94C211.307 140.172 211.487 140.329 211.705 140.409C211.928 140.485 212.162 140.523 212.408 140.523C212.593 140.523 212.744 140.513 212.863 140.494C212.981 140.471 213.076 140.452 213.147 140.438L213.488 141.943C213.374 141.986 213.216 142.028 213.012 142.071C212.808 142.118 212.55 142.142 212.238 142.142C211.764 142.142 211.3 142.04 210.846 141.837C210.396 141.633 210.022 141.323 209.724 140.906C209.43 140.49 209.283 139.964 209.283 139.33V128.477ZM223.742 133.534L222.237 133.96C222.142 133.709 222.002 133.465 221.818 133.229C221.638 132.987 221.391 132.788 221.079 132.632C220.766 132.476 220.366 132.398 219.879 132.398C219.211 132.398 218.655 132.552 218.21 132.859C217.769 133.162 217.549 133.548 217.549 134.017C217.549 134.434 217.701 134.763 218.004 135.004C218.307 135.246 218.78 135.447 219.424 135.608L221.043 136.006C222.019 136.242 222.746 136.605 223.224 137.092C223.702 137.575 223.941 138.198 223.941 138.96C223.941 139.585 223.761 140.144 223.401 140.636C223.046 141.129 222.549 141.517 221.91 141.801C221.271 142.085 220.527 142.227 219.68 142.227C218.567 142.227 217.646 141.986 216.917 141.503C216.188 141.02 215.726 140.314 215.532 139.386L217.123 138.989C217.274 139.576 217.561 140.016 217.982 140.31C218.408 140.603 218.965 140.75 219.651 140.75C220.433 140.75 221.053 140.584 221.512 140.253C221.976 139.917 222.208 139.514 222.208 139.045C222.208 138.667 222.076 138.349 221.81 138.094C221.545 137.833 221.138 137.639 220.589 137.511L218.771 137.085C217.772 136.848 217.038 136.482 216.569 135.984C216.105 135.482 215.873 134.855 215.873 134.102C215.873 133.487 216.046 132.942 216.391 132.469C216.742 131.995 217.218 131.624 217.819 131.354C218.425 131.084 219.112 130.949 219.879 130.949C220.958 130.949 221.806 131.186 222.421 131.659C223.041 132.133 223.482 132.758 223.742 133.534Z" fill="#1A2434"/>
</g>
<defs>
<filter id="filter0_d_8_1044" x="-8" y="-8" width="340" height="209" filterUnits="userSpaceOnUse" color-interpolation-filters="sRGB">
<feFlood flood-opacity="0" result="BackgroundImageFix"/>
<feColorMatrix in="SourceAlpha" type="matrix" values="0 0 0 0 0 0 0 0 0 0 0 0 0 0 0 0 0 0 127 0" result="hardAlpha"/>
<feOffset dx="8" dy="8"/>
<feGaussianBlur stdDeviation="8"/>
<feComposite in2="hardAlpha" operator="out"/>
<feColorMatrix type="matrix" values="0 0 0 0 0 0 0 0 0 0 0 0 0 0 0 0 0 0 0.04 0"/>
<feBlend mode="normal" in2="BackgroundImageFix" result="effect1_dropShadow_8_1044"/>
<feBlend mode="normal" in="SourceGraphic" in2="effect1_dropShadow_8_1044" result="shape"/>
</filter>
</defs>
</svg>
