<svg width="308" height="177" viewBox="0 0 308 177" fill="none" xmlns="http://www.w3.org/2000/svg">
<path d="M111.072 89V48.744H101.856V41.32H119.776V89H111.072ZM144.821 89.768C142.303 89.768 139.893 89.2987 137.589 88.36C135.327 87.4213 133.365 86.0987 131.701 84.392C130.079 82.6427 128.97 80.5733 128.373 78.184L135.925 75.496C136.65 77.672 137.823 79.2933 139.445 80.36C141.066 81.384 142.858 81.896 144.821 81.896C146.442 81.896 147.871 81.5547 149.109 80.872C150.389 80.1467 151.37 79.1653 152.053 77.928C152.735 76.648 153.077 75.176 153.077 73.512C153.077 71.848 152.714 70.3973 151.989 69.16C151.306 67.9227 150.346 66.9627 149.109 66.28C147.871 65.5547 146.442 65.192 144.821 65.192C143.157 65.192 141.642 65.5547 140.277 66.28C138.954 67.0053 137.994 68.0507 137.397 69.416L130.293 67.816L134.069 41.32H160.053V48.68H137.525L140.789 44.904L138.101 64.872L135.605 62.824C136.799 61.0747 138.25 59.7947 139.957 58.984C141.706 58.1733 143.818 57.768 146.293 57.768C149.45 57.768 152.181 58.4507 154.485 59.816C156.831 61.1813 158.645 63.0373 159.925 65.384C161.205 67.7307 161.845 70.44 161.845 73.512C161.845 76.584 161.098 79.3573 159.604 81.832C158.111 84.3067 156.085 86.248 153.525 87.656C150.965 89.064 148.063 89.768 144.821 89.768Z" fill="#1A2434"/>
<path d="M182.724 89V76.584H170.308V69.352H182.724V57H189.956V69.352H202.308V76.584H189.956V89H182.724Z" fill="#A4074D"/>
<path opacity="0.7" d="M57.2786 127.455H59.2956L63.3297 134.244H63.5001L67.5342 127.455H69.5513L64.2956 136.006V142H62.5342V136.006L57.2786 127.455ZM75.033 142.227C73.9818 142.227 73.0751 141.995 72.3128 141.531C71.5552 141.062 70.9705 140.409 70.5585 139.571C70.1513 138.728 69.9477 137.748 69.9477 136.631C69.9477 135.513 70.1513 134.528 70.5585 133.676C70.9705 132.819 71.5434 132.152 72.2773 131.673C73.0159 131.19 73.8777 130.949 74.8625 130.949C75.4307 130.949 75.9918 131.044 76.5457 131.233C77.0997 131.422 77.604 131.73 78.0585 132.156C78.5131 132.578 78.8753 133.136 79.1452 133.832C79.4151 134.528 79.55 135.385 79.55 136.403V137.114H71.1409V135.665H77.8455C77.8455 135.049 77.7224 134.5 77.4761 134.017C77.2347 133.534 76.889 133.153 76.4392 132.874C75.9941 132.594 75.4686 132.455 74.8625 132.455C74.1949 132.455 73.6172 132.62 73.1295 132.952C72.6466 133.278 72.2749 133.705 72.0145 134.23C71.7541 134.756 71.6239 135.319 71.6239 135.92V136.886C71.6239 137.71 71.7659 138.409 72.05 138.982C72.3388 139.55 72.7389 139.983 73.2503 140.281C73.7616 140.575 74.3559 140.722 75.033 140.722C75.4733 140.722 75.871 140.66 76.2261 140.537C76.586 140.409 76.8961 140.22 77.1565 139.969C77.417 139.713 77.6182 139.396 77.7602 139.017L79.3795 139.472C79.2091 140.021 78.9226 140.504 78.5202 140.92C78.1177 141.332 77.6206 141.654 77.0287 141.886C76.4368 142.114 75.7716 142.227 75.033 142.227ZM85.7099 142.256C85.0187 142.256 84.3913 142.125 83.8278 141.865C83.2644 141.6 82.817 141.219 82.4855 140.722C82.1541 140.22 81.9884 139.614 81.9884 138.903C81.9884 138.278 82.1115 137.772 82.3577 137.384C82.6039 136.991 82.933 136.683 83.3449 136.46C83.7568 136.238 84.2114 136.072 84.7085 135.963C85.2104 135.849 85.7147 135.759 86.2213 135.693C86.8842 135.608 87.4216 135.544 87.8335 135.501C88.2502 135.454 88.5532 135.376 88.7426 135.267C88.9367 135.158 89.0338 134.969 89.0338 134.699V134.642C89.0338 133.941 88.842 133.397 88.4585 133.009C88.0797 132.62 87.5045 132.426 86.7327 132.426C85.9325 132.426 85.3051 132.601 84.8506 132.952C84.396 133.302 84.0764 133.676 83.8918 134.074L82.3009 133.506C82.5849 132.843 82.9637 132.327 83.4372 131.957C83.9154 131.583 84.4363 131.323 84.9997 131.176C85.5679 131.025 86.1266 130.949 86.6759 130.949C87.0262 130.949 87.4287 130.991 87.8832 131.077C88.3425 131.157 88.7852 131.325 89.2114 131.581C89.6422 131.837 89.9997 132.223 90.2838 132.739C90.5679 133.255 90.7099 133.946 90.7099 134.812V142H89.0338V140.523H88.9486C88.8349 140.759 88.6456 141.013 88.3804 141.283C88.1152 141.553 87.7625 141.782 87.3222 141.972C86.8818 142.161 86.3444 142.256 85.7099 142.256ZM85.9656 140.75C86.6285 140.75 87.1872 140.62 87.6418 140.359C88.101 140.099 88.4467 139.763 88.6787 139.351C88.9154 138.939 89.0338 138.506 89.0338 138.051V136.517C88.9628 136.602 88.8065 136.68 88.5651 136.751C88.3283 136.818 88.0537 136.877 87.7412 136.929C87.4334 136.976 87.1328 137.019 86.8392 137.057C86.5504 137.09 86.316 137.118 86.1361 137.142C85.7005 137.199 85.2933 137.291 84.9145 137.419C84.5404 137.542 84.2374 137.729 84.0054 137.98C83.7781 138.226 83.6645 138.562 83.6645 138.989C83.6645 139.571 83.8799 140.011 84.3108 140.31C84.7464 140.603 85.298 140.75 85.9656 140.75ZM94.1692 142V131.091H95.7886V132.739H95.9022C96.1011 132.199 96.4609 131.761 96.9817 131.425C97.5026 131.089 98.0897 130.92 98.7431 130.92C98.8662 130.92 99.0201 130.923 99.2048 130.928C99.3894 130.932 99.5291 130.939 99.6238 130.949V132.653C99.567 132.639 99.4368 132.618 99.2332 132.589C99.0343 132.556 98.8236 132.54 98.6011 132.54C98.0708 132.54 97.5973 132.651 97.1806 132.874C96.7687 133.091 96.442 133.394 96.2005 133.783C95.9638 134.166 95.8454 134.604 95.8454 135.097V142H94.1692ZM109.738 133.534L108.232 133.96C108.138 133.709 107.998 133.465 107.813 133.229C107.633 132.987 107.387 132.788 107.075 132.632C106.762 132.476 106.362 132.398 105.874 132.398C105.207 132.398 104.65 132.552 104.205 132.859C103.765 133.162 103.545 133.548 103.545 134.017C103.545 134.434 103.696 134.763 103.999 135.004C104.302 135.246 104.776 135.447 105.42 135.608L107.039 136.006C108.014 136.242 108.741 136.605 109.219 137.092C109.698 137.575 109.937 138.198 109.937 138.96C109.937 139.585 109.757 140.144 109.397 140.636C109.042 141.129 108.545 141.517 107.906 141.801C107.266 142.085 106.523 142.227 105.675 142.227C104.563 142.227 103.642 141.986 102.913 141.503C102.183 141.02 101.722 140.314 101.528 139.386L103.119 138.989C103.27 139.576 103.557 140.016 103.978 140.31C104.404 140.603 104.96 140.75 105.647 140.75C106.428 140.75 107.049 140.584 107.508 140.253C107.972 139.917 108.204 139.514 108.204 139.045C108.204 138.667 108.071 138.349 107.806 138.094C107.541 137.833 107.134 137.639 106.585 137.511L104.766 137.085C103.767 136.848 103.033 136.482 102.565 135.984C102.101 135.482 101.869 134.855 101.869 134.102C101.869 133.487 102.041 132.942 102.387 132.469C102.737 131.995 103.213 131.624 103.815 131.354C104.421 131.084 105.107 130.949 105.874 130.949C106.954 130.949 107.801 131.186 108.417 131.659C109.037 132.133 109.478 132.758 109.738 133.534ZM123.317 142.227C122.332 142.227 121.468 141.993 120.724 141.524C119.986 141.055 119.408 140.4 118.991 139.557C118.579 138.714 118.374 137.729 118.374 136.602C118.374 135.466 118.579 134.474 118.991 133.626C119.408 132.779 119.986 132.121 120.724 131.652C121.468 131.183 122.332 130.949 123.317 130.949C124.302 130.949 125.163 131.183 125.902 131.652C126.645 132.121 127.223 132.779 127.635 133.626C128.052 134.474 128.26 135.466 128.26 136.602C128.26 137.729 128.052 138.714 127.635 139.557C127.223 140.4 126.645 141.055 125.902 141.524C125.163 141.993 124.302 142.227 123.317 142.227ZM123.317 140.722C124.065 140.722 124.68 140.53 125.163 140.146C125.646 139.763 126.004 139.259 126.236 138.634C126.468 138.009 126.584 137.331 126.584 136.602C126.584 135.873 126.468 135.194 126.236 134.564C126.004 133.934 125.646 133.425 125.163 133.037C124.68 132.649 124.065 132.455 123.317 132.455C122.569 132.455 121.953 132.649 121.47 133.037C120.987 133.425 120.63 133.934 120.398 134.564C120.166 135.194 120.05 135.873 120.05 136.602C120.05 137.331 120.166 138.009 120.398 138.634C120.63 139.259 120.987 139.763 121.47 140.146C121.953 140.53 122.569 140.722 123.317 140.722ZM136.076 131.091V132.511H130.196V131.091H136.076ZM131.957 142V129.585C131.957 128.96 132.104 128.439 132.397 128.023C132.691 127.606 133.072 127.294 133.541 127.085C134.01 126.877 134.504 126.773 135.025 126.773C135.437 126.773 135.773 126.806 136.034 126.872C136.294 126.938 136.488 127 136.616 127.057L136.133 128.506C136.048 128.477 135.93 128.442 135.778 128.399C135.631 128.357 135.437 128.335 135.196 128.335C134.642 128.335 134.242 128.475 133.995 128.754C133.754 129.034 133.633 129.443 133.633 129.983V142H131.957ZM149.424 142.227C148.373 142.227 147.467 141.995 146.704 141.531C145.947 141.062 145.362 140.409 144.95 139.571C144.543 138.728 144.339 137.748 144.339 136.631C144.339 135.513 144.543 134.528 144.95 133.676C145.362 132.819 145.935 132.152 146.669 131.673C147.407 131.19 148.269 130.949 149.254 130.949C149.822 130.949 150.383 131.044 150.937 131.233C151.491 131.422 151.995 131.73 152.45 132.156C152.904 132.578 153.267 133.136 153.537 133.832C153.806 134.528 153.941 135.385 153.941 136.403V137.114H145.532V135.665H152.237C152.237 135.049 152.114 134.5 151.868 134.017C151.626 133.534 151.28 133.153 150.831 132.874C150.386 132.594 149.86 132.455 149.254 132.455C148.586 132.455 148.009 132.62 147.521 132.952C147.038 133.278 146.666 133.705 146.406 134.23C146.145 134.756 146.015 135.319 146.015 135.92V136.886C146.015 137.71 146.157 138.409 146.441 138.982C146.73 139.55 147.13 139.983 147.642 140.281C148.153 140.575 148.747 140.722 149.424 140.722C149.865 140.722 150.262 140.66 150.618 140.537C150.977 140.409 151.288 140.22 151.548 139.969C151.808 139.713 152.01 139.396 152.152 139.017L153.771 139.472C153.6 140.021 153.314 140.504 152.912 140.92C152.509 141.332 152.012 141.654 151.42 141.886C150.828 142.114 150.163 142.227 149.424 142.227ZM157.848 131.091L160.462 135.551L163.075 131.091H165.007L161.485 136.545L165.007 142H163.075L160.462 137.767L157.848 142H155.916L159.382 136.545L155.916 131.091H157.848ZM167.799 146.091V131.091H169.418V132.824H169.617C169.74 132.634 169.911 132.393 170.128 132.099C170.351 131.801 170.668 131.536 171.08 131.304C171.497 131.067 172.06 130.949 172.771 130.949C173.689 130.949 174.499 131.179 175.2 131.638C175.9 132.097 176.447 132.748 176.84 133.591C177.233 134.434 177.43 135.428 177.43 136.574C177.43 137.729 177.233 138.731 176.84 139.578C176.447 140.421 175.903 141.074 175.207 141.538C174.511 141.998 173.708 142.227 172.799 142.227C172.098 142.227 171.537 142.111 171.116 141.879C170.694 141.643 170.37 141.375 170.143 141.077C169.915 140.774 169.74 140.523 169.617 140.324H169.475V146.091H167.799ZM169.447 136.545C169.447 137.369 169.567 138.096 169.809 138.726C170.05 139.351 170.403 139.841 170.867 140.196C171.331 140.546 171.899 140.722 172.572 140.722C173.272 140.722 173.857 140.537 174.326 140.168C174.799 139.794 175.155 139.292 175.391 138.662C175.633 138.027 175.753 137.322 175.753 136.545C175.753 135.778 175.635 135.087 175.398 134.472C175.166 133.851 174.814 133.361 174.34 133.001C173.871 132.637 173.282 132.455 172.572 132.455C171.89 132.455 171.317 132.627 170.853 132.973C170.389 133.314 170.039 133.792 169.802 134.408C169.565 135.018 169.447 135.731 169.447 136.545ZM184.96 142.227C183.909 142.227 183.002 141.995 182.24 141.531C181.483 141.062 180.898 140.409 180.486 139.571C180.079 138.728 179.875 137.748 179.875 136.631C179.875 135.513 180.079 134.528 180.486 133.676C180.898 132.819 181.471 132.152 182.205 131.673C182.943 131.19 183.805 130.949 184.79 130.949C185.358 130.949 185.919 131.044 186.473 131.233C187.027 131.422 187.531 131.73 187.986 132.156C188.44 132.578 188.803 133.136 189.073 133.832C189.342 134.528 189.477 135.385 189.477 136.403V137.114H181.068V135.665H187.773C187.773 135.049 187.65 134.5 187.403 134.017C187.162 133.534 186.816 133.153 186.367 132.874C185.921 132.594 185.396 132.455 184.79 132.455C184.122 132.455 183.545 132.62 183.057 132.952C182.574 133.278 182.202 133.705 181.942 134.23C181.681 134.756 181.551 135.319 181.551 135.92V136.886C181.551 137.71 181.693 138.409 181.977 138.982C182.266 139.55 182.666 139.983 183.178 140.281C183.689 140.575 184.283 140.722 184.96 140.722C185.401 140.722 185.798 140.66 186.153 140.537C186.513 140.409 186.823 140.22 187.084 139.969C187.344 139.713 187.546 139.396 187.688 139.017L189.307 139.472C189.136 140.021 188.85 140.504 188.448 140.92C188.045 141.332 187.548 141.654 186.956 141.886C186.364 142.114 185.699 142.227 184.96 142.227ZM192.427 142V131.091H194.046V132.739H194.16C194.359 132.199 194.719 131.761 195.24 131.425C195.76 131.089 196.348 130.92 197.001 130.92C197.124 130.92 197.278 130.923 197.463 130.928C197.647 130.932 197.787 130.939 197.882 130.949V132.653C197.825 132.639 197.695 132.618 197.491 132.589C197.292 132.556 197.081 132.54 196.859 132.54C196.329 132.54 195.855 132.651 195.438 132.874C195.026 133.091 194.7 133.394 194.458 133.783C194.222 134.166 194.103 134.604 194.103 135.097V142H192.427ZM200.268 142V131.091H201.945V142H200.268ZM201.121 129.273C200.794 129.273 200.512 129.161 200.276 128.939C200.044 128.716 199.928 128.449 199.928 128.136C199.928 127.824 200.044 127.556 200.276 127.334C200.512 127.111 200.794 127 201.121 127C201.447 127 201.727 127.111 201.959 127.334C202.196 127.556 202.314 127.824 202.314 128.136C202.314 128.449 202.196 128.716 201.959 128.939C201.727 129.161 201.447 129.273 201.121 129.273ZM209.988 142.227C208.937 142.227 208.031 141.995 207.268 141.531C206.511 141.062 205.926 140.409 205.514 139.571C205.107 138.728 204.903 137.748 204.903 136.631C204.903 135.513 205.107 134.528 205.514 133.676C205.926 132.819 206.499 132.152 207.233 131.673C207.971 131.19 208.833 130.949 209.818 130.949C210.386 130.949 210.947 131.044 211.501 131.233C212.055 131.422 212.559 131.73 213.014 132.156C213.469 132.578 213.831 133.136 214.101 133.832C214.371 134.528 214.505 135.385 214.505 136.403V137.114H206.096V135.665H212.801C212.801 135.049 212.678 134.5 212.432 134.017C212.19 133.534 211.844 133.153 211.395 132.874C210.95 132.594 210.424 132.455 209.818 132.455C209.15 132.455 208.573 132.62 208.085 132.952C207.602 133.278 207.23 133.705 206.97 134.23C206.71 134.756 206.579 135.319 206.579 135.92V136.886C206.579 137.71 206.721 138.409 207.005 138.982C207.294 139.55 207.694 139.983 208.206 140.281C208.717 140.575 209.311 140.722 209.988 140.722C210.429 140.722 210.826 140.66 211.182 140.537C211.541 140.409 211.852 140.22 212.112 139.969C212.372 139.713 212.574 139.396 212.716 139.017L214.335 139.472C214.165 140.021 213.878 140.504 213.476 140.92C213.073 141.332 212.576 141.654 211.984 141.886C211.392 142.114 210.727 142.227 209.988 142.227ZM219.131 135.438V142H217.455V131.091H219.074V132.795H219.217C219.472 132.241 219.86 131.796 220.381 131.46C220.902 131.119 221.574 130.949 222.398 130.949C223.137 130.949 223.783 131.1 224.337 131.403C224.891 131.702 225.322 132.156 225.63 132.767C225.938 133.373 226.092 134.14 226.092 135.068V142H224.415V135.182C224.415 134.325 224.193 133.657 223.748 133.179C223.303 132.696 222.692 132.455 221.915 132.455C221.38 132.455 220.902 132.571 220.481 132.803C220.064 133.035 219.735 133.373 219.494 133.818C219.252 134.263 219.131 134.803 219.131 135.438ZM233.986 142.227C232.964 142.227 232.083 141.986 231.344 141.503C230.606 141.02 230.037 140.355 229.64 139.507C229.242 138.66 229.043 137.691 229.043 136.602C229.043 135.494 229.247 134.517 229.654 133.669C230.066 132.817 230.639 132.152 231.373 131.673C232.111 131.19 232.973 130.949 233.958 130.949C234.725 130.949 235.416 131.091 236.032 131.375C236.647 131.659 237.151 132.057 237.544 132.568C237.937 133.08 238.181 133.676 238.276 134.358H236.6C236.472 133.861 236.188 133.42 235.748 133.037C235.312 132.649 234.725 132.455 233.986 132.455C233.333 132.455 232.76 132.625 232.267 132.966C231.78 133.302 231.399 133.778 231.124 134.393C230.854 135.004 230.719 135.722 230.719 136.545C230.719 137.388 230.852 138.122 231.117 138.747C231.387 139.372 231.766 139.857 232.253 140.203C232.746 140.549 233.323 140.722 233.986 140.722C234.422 140.722 234.817 140.646 235.172 140.494C235.527 140.343 235.828 140.125 236.074 139.841C236.321 139.557 236.496 139.216 236.6 138.818H238.276C238.181 139.462 237.947 140.042 237.573 140.558C237.204 141.07 236.714 141.477 236.103 141.78C235.497 142.078 234.791 142.227 233.986 142.227ZM245.7 142.227C244.649 142.227 243.742 141.995 242.98 141.531C242.222 141.062 241.638 140.409 241.226 139.571C240.819 138.728 240.615 137.748 240.615 136.631C240.615 135.513 240.819 134.528 241.226 133.676C241.638 132.819 242.211 132.152 242.944 131.673C243.683 131.19 244.545 130.949 245.53 130.949C246.098 130.949 246.659 131.044 247.213 131.233C247.767 131.422 248.271 131.73 248.726 132.156C249.18 132.578 249.542 133.136 249.812 133.832C250.082 134.528 250.217 135.385 250.217 136.403V137.114H241.808V135.665H248.513C248.513 135.049 248.39 134.5 248.143 134.017C247.902 133.534 247.556 133.153 247.106 132.874C246.661 132.594 246.136 132.455 245.53 132.455C244.862 132.455 244.284 132.62 243.797 132.952C243.314 133.278 242.942 133.705 242.682 134.23C242.421 134.756 242.291 135.319 242.291 135.92V136.886C242.291 137.71 242.433 138.409 242.717 138.982C243.006 139.55 243.406 139.983 243.917 140.281C244.429 140.575 245.023 140.722 245.7 140.722C246.14 140.722 246.538 140.66 246.893 140.537C247.253 140.409 247.563 140.22 247.824 139.969C248.084 139.713 248.285 139.396 248.427 139.017L250.047 139.472C249.876 140.021 249.59 140.504 249.187 140.92C248.785 141.332 248.288 141.654 247.696 141.886C247.104 142.114 246.439 142.227 245.7 142.227Z" fill="#1A2434"/>
</svg>

