<svg width="308" height="177" viewBox="0 0 308 177" fill="none" xmlns="http://www.w3.org/2000/svg">
<g filter="url(#filter0_d_8_1047)">
<path d="M87.016 89L103.208 68.136L104.68 69.672C104.04 70.1413 103.421 70.5253 102.824 70.824C102.227 71.1227 101.587 71.336 100.904 71.464C100.221 71.592 99.496 71.656 98.728 71.656C95.8267 71.656 93.2453 70.9947 90.984 69.672C88.7227 68.3493 86.9307 66.5573 85.608 64.296C84.328 61.992 83.688 59.3893 83.688 56.488C83.688 53.416 84.392 50.6853 85.8 48.296C87.2507 45.9067 89.2133 44.0293 91.688 42.664C94.2053 41.256 97.064 40.552 100.264 40.552C103.507 40.552 106.365 41.2347 108.84 42.6C111.315 43.9653 113.256 45.8427 114.664 48.232C116.115 50.5787 116.84 53.288 116.84 56.36C116.84 57.896 116.669 59.432 116.328 60.968C115.987 62.504 115.368 64.1467 114.472 65.896C113.619 67.6027 112.381 69.544 110.76 71.72L97.448 89H87.016ZM100.264 64.36C101.757 64.36 103.08 64.04 104.232 63.4C105.427 62.7173 106.365 61.7787 107.048 60.584C107.731 59.3467 108.072 57.96 108.072 56.424C108.072 54.8027 107.709 53.3947 106.984 52.2C106.301 51.0053 105.384 50.0667 104.232 49.384C103.08 48.7013 101.757 48.36 100.264 48.36C98.8133 48.36 97.4907 48.7013 96.296 49.384C95.1013 50.0667 94.1413 51.0053 93.416 52.2C92.7333 53.3947 92.392 54.8027 92.392 56.424C92.392 57.96 92.7333 59.3467 93.416 60.584C94.1413 61.7787 95.1013 62.7173 96.296 63.4C97.4907 64.04 98.8133 64.36 100.264 64.36ZM139.724 89.768C136.268 89.768 133.26 89.128 130.7 87.848C128.183 86.5253 126.22 84.7547 124.812 82.536C123.447 80.3173 122.764 77.8853 122.764 75.24C122.764 72.1253 123.596 69.5013 125.26 67.368C126.924 65.192 129.335 63.592 132.492 62.568L131.98 64.68C129.719 63.9547 127.927 62.5467 126.604 60.456C125.324 58.3653 124.684 56.0613 124.684 53.544C124.684 51.0267 125.324 48.7867 126.604 46.824C127.884 44.8613 129.655 43.3253 131.916 42.216C134.177 41.1067 136.78 40.552 139.724 40.552C142.625 40.552 145.185 41.1067 147.404 42.216C149.665 43.3253 151.436 44.8613 152.716 46.824C154.039 48.7867 154.7 51.0267 154.7 53.544C154.7 56.104 154.039 58.4293 152.716 60.52C151.436 62.568 149.665 63.976 147.404 64.744L146.956 62.504C150.113 63.6133 152.524 65.256 154.188 67.432C155.852 69.5653 156.684 72.1893 156.684 75.304C156.684 77.9493 155.98 80.3813 154.572 82.6C153.207 84.776 151.244 86.5253 148.684 87.848C146.167 89.128 143.18 89.768 139.724 89.768ZM139.724 82.408C141.388 82.408 142.839 82.1093 144.076 81.512C145.313 80.872 146.273 79.9973 146.956 78.888C147.639 77.736 147.98 76.4347 147.98 74.984C147.98 73.4907 147.639 72.2107 146.956 71.144C146.273 70.0347 145.313 69.1813 144.076 68.584C142.839 67.944 141.388 67.624 139.724 67.624C138.06 67.624 136.609 67.944 135.372 68.584C134.177 69.1813 133.239 70.0347 132.556 71.144C131.873 72.2107 131.532 73.4907 131.532 74.984C131.532 76.4347 131.873 77.736 132.556 78.888C133.239 79.9973 134.177 80.872 135.372 81.512C136.609 82.1093 138.06 82.408 139.724 82.408ZM139.724 60.264C140.961 60.264 142.049 59.9867 142.988 59.432C143.927 58.8773 144.652 58.152 145.164 57.256C145.719 56.3173 145.996 55.2507 145.996 54.056C145.996 52.8613 145.719 51.816 145.164 50.92C144.652 49.9813 143.927 49.256 142.988 48.744C142.049 48.1893 140.961 47.912 139.724 47.912C138.487 47.912 137.377 48.1893 136.396 48.744C135.457 49.256 134.711 49.9813 134.156 50.92C133.644 51.816 133.388 52.8613 133.388 54.056C133.388 55.2507 133.644 56.3173 134.156 57.256C134.711 58.152 135.457 58.8773 136.396 59.432C137.377 59.9867 138.487 60.264 139.724 60.264Z" fill="#1A2434"/>
<path d="M169.73 89L208.386 41.32H217.346L178.69 89H169.73ZM177.154 65.512C174.807 65.512 172.674 64.9573 170.754 63.848C168.876 62.696 167.383 61.1813 166.274 59.304C165.164 57.4267 164.61 55.336 164.61 53.032C164.61 50.728 165.164 48.6373 166.274 46.76C167.383 44.84 168.876 43.3253 170.754 42.216C172.674 41.1067 174.807 40.552 177.154 40.552C179.543 40.552 181.676 41.1067 183.554 42.216C185.431 43.3253 186.924 44.84 188.034 46.76C189.143 48.6373 189.698 50.728 189.698 53.032C189.698 55.336 189.143 57.4267 188.034 59.304C186.924 61.1813 185.431 62.696 183.554 63.848C181.676 64.9573 179.543 65.512 177.154 65.512ZM177.154 59.048C178.434 59.048 179.5 58.7707 180.354 58.216C181.207 57.6187 181.847 56.872 182.274 55.976C182.743 55.0373 182.978 54.056 182.978 53.032C182.978 51.9653 182.743 50.984 182.274 50.088C181.847 49.192 181.207 48.4453 180.354 47.848C179.5 47.2507 178.434 46.952 177.154 46.952C175.959 46.952 174.914 47.2507 174.018 47.848C173.164 48.4453 172.503 49.2133 172.034 50.152C171.564 51.048 171.33 52.008 171.33 53.032C171.33 54.0133 171.564 54.9733 172.034 55.912C172.503 56.8507 173.164 57.6187 174.018 58.216C174.914 58.7707 175.959 59.048 177.154 59.048ZM209.666 89.768C207.319 89.768 205.186 89.2133 203.266 88.104C201.388 86.952 199.895 85.4373 198.786 83.56C197.676 81.6827 197.122 79.592 197.122 77.288C197.122 74.984 197.676 72.8933 198.786 71.016C199.895 69.096 201.388 67.5813 203.266 66.472C205.186 65.3627 207.319 64.808 209.666 64.808C212.055 64.808 214.188 65.3627 216.066 66.472C217.943 67.5813 219.436 69.096 220.546 71.016C221.655 72.8933 222.21 74.984 222.21 77.288C222.21 79.592 221.655 81.6827 220.546 83.56C219.436 85.4373 217.943 86.952 216.066 88.104C214.188 89.2133 212.055 89.768 209.666 89.768ZM209.666 83.304C210.903 83.304 211.948 83.0267 212.802 82.472C213.698 81.8747 214.359 81.128 214.786 80.232C215.255 79.2933 215.49 78.312 215.49 77.288C215.49 76.2213 215.255 75.24 214.786 74.344C214.359 73.448 213.698 72.7013 212.802 72.104C211.948 71.5067 210.903 71.208 209.666 71.208C208.471 71.208 207.426 71.5067 206.53 72.104C205.676 72.7013 205.015 73.4693 204.546 74.408C204.076 75.304 203.842 76.264 203.842 77.288C203.842 78.2693 204.076 79.2293 204.546 80.168C205.015 81.1067 205.676 81.8747 206.53 82.472C207.426 83.0267 208.471 83.304 209.666 83.304Z" fill="#A4074D"/>
<path opacity="0.7" d="M59.7647 131.091C59.6795 130.371 59.3339 129.812 58.7278 129.415C58.1217 129.017 57.3784 128.818 56.4977 128.818C55.8538 128.818 55.2903 128.922 54.8074 129.131C54.3291 129.339 53.9551 129.625 53.6852 129.99C53.42 130.355 53.2875 130.769 53.2875 131.233C53.2875 131.621 53.3798 131.955 53.5645 132.234C53.7538 132.509 53.9953 132.739 54.2889 132.923C54.5824 133.103 54.8902 133.252 55.2122 133.371C55.5342 133.484 55.8301 133.577 56.1 133.648L57.5772 134.045C57.956 134.145 58.3774 134.282 58.8414 134.457C59.3102 134.633 59.7576 134.872 60.1838 135.175C60.6146 135.473 60.9698 135.857 61.2491 136.325C61.5285 136.794 61.6681 137.369 61.6681 138.051C61.6681 138.837 61.4622 139.547 61.0502 140.182C60.6431 140.816 60.0465 141.321 59.2605 141.695C58.4792 142.069 57.5299 142.256 56.4125 142.256C55.3708 142.256 54.4688 142.088 53.7065 141.751C52.9489 141.415 52.3523 140.946 51.9167 140.345C51.4859 139.744 51.242 139.045 51.1852 138.25H53.0034C53.0507 138.799 53.2354 139.254 53.5574 139.614C53.8841 139.969 54.296 140.234 54.7931 140.409C55.295 140.58 55.8348 140.665 56.4125 140.665C57.0848 140.665 57.6885 140.556 58.2235 140.338C58.7586 140.116 59.1824 139.808 59.4949 139.415C59.8074 139.017 59.9636 138.553 59.9636 138.023C59.9636 137.54 59.8287 137.147 59.5588 136.844C59.2889 136.541 58.9338 136.295 58.4934 136.105C58.0531 135.916 57.5772 135.75 57.0659 135.608L55.2761 135.097C54.1397 134.77 53.2401 134.304 52.5772 133.697C51.9144 133.091 51.5829 132.298 51.5829 131.318C51.5829 130.504 51.8031 129.794 52.2434 129.188C52.6885 128.577 53.2851 128.103 54.0332 127.767C54.786 127.426 55.6265 127.256 56.5545 127.256C57.492 127.256 58.3253 127.424 59.0545 127.76C59.7837 128.091 60.3613 128.546 60.7875 129.124C61.2183 129.701 61.4456 130.357 61.4693 131.091H59.7647ZM69.4811 131.091V132.511H63.8277V131.091H69.4811ZM65.4755 128.477H67.1516V138.875C67.1516 139.348 67.2203 139.704 67.3576 139.94C67.4996 140.172 67.6795 140.329 67.8973 140.409C68.1199 140.485 68.3542 140.523 68.6005 140.523C68.7851 140.523 68.9366 140.513 69.055 140.494C69.1734 140.471 69.2681 140.452 69.3391 140.438L69.68 141.943C69.5664 141.986 69.4078 142.028 69.2042 142.071C69.0006 142.118 68.7425 142.142 68.43 142.142C67.9565 142.142 67.4925 142.04 67.038 141.837C66.5882 141.633 66.2141 141.323 65.9158 140.906C65.6222 140.49 65.4755 139.964 65.4755 139.33V128.477ZM79.2774 137.54V131.091H80.9536V142H79.2774V140.153H79.1638C78.9081 140.707 78.5104 141.179 77.9706 141.567C77.4309 141.95 76.749 142.142 75.9252 142.142C75.2434 142.142 74.6373 141.993 74.107 141.695C73.5767 141.392 73.16 140.937 72.857 140.331C72.554 139.72 72.4024 138.951 72.4024 138.023V131.091H74.0786V137.909C74.0786 138.705 74.3011 139.339 74.7462 139.812C75.196 140.286 75.7689 140.523 76.4649 140.523C76.8816 140.523 77.3054 140.416 77.7363 140.203C78.1719 139.99 78.5364 139.663 78.83 139.223C79.1283 138.783 79.2774 138.222 79.2774 137.54ZM88.5429 142.227C87.6338 142.227 86.8312 141.998 86.1352 141.538C85.4392 141.074 84.8947 140.421 84.5017 139.578C84.1087 138.731 83.9122 137.729 83.9122 136.574C83.9122 135.428 84.1087 134.434 84.5017 133.591C84.8947 132.748 85.4415 132.097 86.1423 131.638C86.8431 131.179 87.6527 130.949 88.5713 130.949C89.2815 130.949 89.8426 131.067 90.2545 131.304C90.6712 131.536 90.9884 131.801 91.2062 132.099C91.4288 132.393 91.6016 132.634 91.7247 132.824H91.8667V127.455H93.5429V142H91.9235V140.324H91.7247C91.6016 140.523 91.4264 140.774 91.1991 141.077C90.9718 141.375 90.6475 141.643 90.2261 141.879C89.8047 142.111 89.2436 142.227 88.5429 142.227ZM88.7701 140.722C89.4425 140.722 90.0107 140.546 90.4747 140.196C90.9387 139.841 91.2914 139.351 91.5329 138.726C91.7744 138.096 91.8951 137.369 91.8951 136.545C91.8951 135.731 91.7768 135.018 91.54 134.408C91.3033 133.792 90.9529 133.314 90.4889 132.973C90.0249 132.627 89.452 132.455 88.7701 132.455C88.0599 132.455 87.4681 132.637 86.9946 133.001C86.5258 133.361 86.1731 133.851 85.9363 134.472C85.7043 135.087 85.5883 135.778 85.5883 136.545C85.5883 137.322 85.7067 138.027 85.9434 138.662C86.1849 139.292 86.54 139.794 87.0088 140.168C87.4823 140.537 88.0694 140.722 88.7701 140.722ZM101.819 142.227C100.768 142.227 99.8614 141.995 99.0991 141.531C98.3415 141.062 97.7568 140.409 97.3448 139.571C96.9377 138.728 96.7341 137.748 96.7341 136.631C96.7341 135.513 96.9377 134.528 97.3448 133.676C97.7568 132.819 98.3297 132.152 99.0636 131.673C99.8022 131.19 100.664 130.949 101.649 130.949C102.217 130.949 102.778 131.044 103.332 131.233C103.886 131.422 104.39 131.73 104.845 132.156C105.299 132.578 105.662 133.136 105.931 133.832C106.201 134.528 106.336 135.385 106.336 136.403V137.114H97.9272V135.665H104.632C104.632 135.049 104.509 134.5 104.262 134.017C104.021 133.534 103.675 133.153 103.226 132.874C102.78 132.594 102.255 132.455 101.649 132.455C100.981 132.455 100.404 132.62 99.9159 132.952C99.4329 133.278 99.0612 133.705 98.8008 134.23C98.5404 134.756 98.4102 135.319 98.4102 135.92V136.886C98.4102 137.71 98.5522 138.409 98.8363 138.982C99.1252 139.55 99.5252 139.983 100.037 140.281C100.548 140.575 101.142 140.722 101.819 140.722C102.26 140.722 102.657 140.66 103.012 140.537C103.372 140.409 103.682 140.22 103.943 139.969C104.203 139.713 104.405 139.396 104.547 139.017L106.166 139.472C105.995 140.021 105.709 140.504 105.306 140.92C104.904 141.332 104.407 141.654 103.815 141.886C103.223 142.114 102.558 142.227 101.819 142.227ZM110.962 135.438V142H109.286V131.091H110.905V132.795H111.047C111.303 132.241 111.691 131.796 112.212 131.46C112.733 131.119 113.405 130.949 114.229 130.949C114.968 130.949 115.614 131.1 116.168 131.403C116.722 131.702 117.153 132.156 117.461 132.767C117.769 133.373 117.922 134.14 117.922 135.068V142H116.246V135.182C116.246 134.325 116.024 133.657 115.579 133.179C115.134 132.696 114.523 132.455 113.746 132.455C113.211 132.455 112.733 132.571 112.312 132.803C111.895 133.035 111.566 133.373 111.324 133.818C111.083 134.263 110.962 134.803 110.962 135.438ZM126.13 131.091V132.511H120.476V131.091H126.13ZM122.124 128.477H123.8V138.875C123.8 139.348 123.869 139.704 124.006 139.94C124.148 140.172 124.328 140.329 124.546 140.409C124.768 140.485 125.003 140.523 125.249 140.523C125.434 140.523 125.585 140.513 125.703 140.494C125.822 140.471 125.917 140.452 125.988 140.438L126.328 141.943C126.215 141.986 126.056 142.028 125.853 142.071C125.649 142.118 125.391 142.142 125.078 142.142C124.605 142.142 124.141 142.04 123.686 141.837C123.237 141.633 122.863 141.323 122.564 140.906C122.271 140.49 122.124 139.964 122.124 139.33V128.477ZM142.803 133.534L141.297 133.96C141.203 133.709 141.063 133.465 140.878 133.229C140.699 132.987 140.452 132.788 140.14 132.632C139.827 132.476 139.427 132.398 138.94 132.398C138.272 132.398 137.716 132.552 137.27 132.859C136.83 133.162 136.61 133.548 136.61 134.017C136.61 134.434 136.761 134.763 137.065 135.004C137.368 135.246 137.841 135.447 138.485 135.608L140.104 136.006C141.08 136.242 141.806 136.605 142.285 137.092C142.763 137.575 143.002 138.198 143.002 138.96C143.002 139.585 142.822 140.144 142.462 140.636C142.107 141.129 141.61 141.517 140.971 141.801C140.332 142.085 139.588 142.227 138.741 142.227C137.628 142.227 136.707 141.986 135.978 141.503C135.249 141.02 134.787 140.314 134.593 139.386L136.184 138.989C136.335 139.576 136.622 140.016 137.043 140.31C137.469 140.603 138.026 140.75 138.712 140.75C139.493 140.75 140.114 140.584 140.573 140.253C141.037 139.917 141.269 139.514 141.269 139.045C141.269 138.667 141.136 138.349 140.871 138.094C140.606 137.833 140.199 137.639 139.65 137.511L137.832 137.085C136.833 136.848 136.099 136.482 135.63 135.984C135.166 135.482 134.934 134.855 134.934 134.102C134.934 133.487 135.107 132.942 135.452 132.469C135.803 131.995 136.279 131.624 136.88 131.354C137.486 131.084 138.172 130.949 138.94 130.949C140.019 130.949 140.867 131.186 141.482 131.659C142.102 132.133 142.543 132.758 142.803 133.534ZM149.135 142.256C148.444 142.256 147.817 142.125 147.253 141.865C146.69 141.6 146.242 141.219 145.911 140.722C145.579 140.22 145.414 139.614 145.414 138.903C145.414 138.278 145.537 137.772 145.783 137.384C146.029 136.991 146.358 136.683 146.77 136.46C147.182 136.238 147.637 136.072 148.134 135.963C148.636 135.849 149.14 135.759 149.647 135.693C150.31 135.608 150.847 135.544 151.259 135.501C151.676 135.454 151.979 135.376 152.168 135.267C152.362 135.158 152.459 134.969 152.459 134.699V134.642C152.459 133.941 152.267 133.397 151.884 133.009C151.505 132.62 150.93 132.426 150.158 132.426C149.358 132.426 148.731 132.601 148.276 132.952C147.821 133.302 147.502 133.676 147.317 134.074L145.726 133.506C146.01 132.843 146.389 132.327 146.863 131.957C147.341 131.583 147.862 131.323 148.425 131.176C148.993 131.025 149.552 130.949 150.101 130.949C150.452 130.949 150.854 130.991 151.309 131.077C151.768 131.157 152.211 131.325 152.637 131.581C153.068 131.837 153.425 132.223 153.709 132.739C153.993 133.255 154.135 133.946 154.135 134.812V142H152.459V140.523H152.374C152.26 140.759 152.071 141.013 151.806 141.283C151.541 141.553 151.188 141.782 150.748 141.972C150.307 142.161 149.77 142.256 149.135 142.256ZM149.391 140.75C150.054 140.75 150.613 140.62 151.067 140.359C151.526 140.099 151.872 139.763 152.104 139.351C152.341 138.939 152.459 138.506 152.459 138.051V136.517C152.388 136.602 152.232 136.68 151.99 136.751C151.754 136.818 151.479 136.877 151.167 136.929C150.859 136.976 150.558 137.019 150.265 137.057C149.976 137.09 149.741 137.118 149.561 137.142C149.126 137.199 148.719 137.291 148.34 137.419C147.966 137.542 147.663 137.729 147.431 137.98C147.204 138.226 147.09 138.562 147.09 138.989C147.09 139.571 147.305 140.011 147.736 140.31C148.172 140.603 148.723 140.75 149.391 140.75ZM162.339 131.091V132.511H156.686V131.091H162.339ZM158.333 128.477H160.009V138.875C160.009 139.348 160.078 139.704 160.215 139.94C160.357 140.172 160.537 140.329 160.755 140.409C160.978 140.485 161.212 140.523 161.458 140.523C161.643 140.523 161.794 140.513 161.913 140.494C162.031 140.471 162.126 140.452 162.197 140.438L162.538 141.943C162.424 141.986 162.266 142.028 162.062 142.071C161.858 142.118 161.6 142.142 161.288 142.142C160.814 142.142 160.35 142.04 159.896 141.837C159.446 141.633 159.072 141.323 158.774 140.906C158.48 140.49 158.333 139.964 158.333 139.33V128.477ZM165.26 142V131.091H166.936V142H165.26ZM166.113 129.273C165.786 129.273 165.504 129.161 165.267 128.939C165.035 128.716 164.919 128.449 164.919 128.136C164.919 127.824 165.035 127.556 165.267 127.334C165.504 127.111 165.786 127 166.113 127C166.439 127 166.719 127.111 166.951 127.334C167.187 127.556 167.306 127.824 167.306 128.136C167.306 128.449 167.187 128.716 166.951 128.939C166.719 129.161 166.439 129.273 166.113 129.273ZM178.134 133.534L176.628 133.96C176.533 133.709 176.394 133.465 176.209 133.229C176.029 132.987 175.783 132.788 175.47 132.632C175.158 132.476 174.758 132.398 174.27 132.398C173.602 132.398 173.046 132.552 172.601 132.859C172.161 133.162 171.94 133.548 171.94 134.017C171.94 134.434 172.092 134.763 172.395 135.004C172.698 135.246 173.172 135.447 173.815 135.608L175.435 136.006C176.41 136.242 177.137 136.605 177.615 137.092C178.093 137.575 178.332 138.198 178.332 138.96C178.332 139.585 178.153 140.144 177.793 140.636C177.438 141.129 176.94 141.517 176.301 141.801C175.662 142.085 174.919 142.227 174.071 142.227C172.958 142.227 172.038 141.986 171.308 141.503C170.579 141.02 170.118 140.314 169.923 139.386L171.514 138.989C171.666 139.576 171.952 140.016 172.374 140.31C172.8 140.603 173.356 140.75 174.043 140.75C174.824 140.75 175.444 140.584 175.904 140.253C176.368 139.917 176.6 139.514 176.6 139.045C176.6 138.667 176.467 138.349 176.202 138.094C175.937 137.833 175.529 137.639 174.98 137.511L173.162 137.085C172.163 136.848 171.429 136.482 170.96 135.984C170.496 135.482 170.264 134.855 170.264 134.102C170.264 133.487 170.437 132.942 170.783 132.469C171.133 131.995 171.609 131.624 172.21 131.354C172.816 131.084 173.503 130.949 174.27 130.949C175.35 130.949 176.197 131.186 176.813 131.659C177.433 132.133 177.873 132.758 178.134 133.534ZM186.114 131.091V132.511H180.233V131.091H186.114ZM181.994 142V129.585C181.994 128.96 182.141 128.439 182.435 128.023C182.728 127.606 183.109 127.294 183.578 127.085C184.047 126.877 184.542 126.773 185.062 126.773C185.474 126.773 185.81 126.806 186.071 126.872C186.331 126.938 186.525 127 186.653 127.057L186.17 128.506C186.085 128.477 185.967 128.442 185.815 128.399C185.668 128.357 185.474 128.335 185.233 128.335C184.679 128.335 184.279 128.475 184.033 128.754C183.791 129.034 183.67 129.443 183.67 129.983V142H181.994ZM191.76 142.256C191.069 142.256 190.442 142.125 189.878 141.865C189.315 141.6 188.867 141.219 188.536 140.722C188.204 140.22 188.039 139.614 188.039 138.903C188.039 138.278 188.162 137.772 188.408 137.384C188.654 136.991 188.983 136.683 189.395 136.46C189.807 136.238 190.262 136.072 190.759 135.963C191.261 135.849 191.765 135.759 192.272 135.693C192.935 135.608 193.472 135.544 193.884 135.501C194.301 135.454 194.604 135.376 194.793 135.267C194.987 135.158 195.084 134.969 195.084 134.699V134.642C195.084 133.941 194.892 133.397 194.509 133.009C194.13 132.62 193.555 132.426 192.783 132.426C191.983 132.426 191.356 132.601 190.901 132.952C190.446 133.302 190.127 133.676 189.942 134.074L188.351 133.506C188.635 132.843 189.014 132.327 189.488 131.957C189.966 131.583 190.487 131.323 191.05 131.176C191.618 131.025 192.177 130.949 192.726 130.949C193.077 130.949 193.479 130.991 193.934 131.077C194.393 131.157 194.836 131.325 195.262 131.581C195.693 131.837 196.05 132.223 196.334 132.739C196.618 133.255 196.76 133.946 196.76 134.812V142H195.084V140.523H194.999C194.885 140.759 194.696 141.013 194.431 141.283C194.166 141.553 193.813 141.782 193.373 141.972C192.932 142.161 192.395 142.256 191.76 142.256ZM192.016 140.75C192.679 140.75 193.238 140.62 193.692 140.359C194.151 140.099 194.497 139.763 194.729 139.351C194.966 138.939 195.084 138.506 195.084 138.051V136.517C195.013 136.602 194.857 136.68 194.615 136.751C194.379 136.818 194.104 136.877 193.792 136.929C193.484 136.976 193.183 137.019 192.89 137.057C192.601 137.09 192.366 137.118 192.186 137.142C191.751 137.199 191.344 137.291 190.965 137.419C190.591 137.542 190.288 137.729 190.056 137.98C189.829 138.226 189.715 138.562 189.715 138.989C189.715 139.571 189.93 140.011 190.361 140.31C190.797 140.603 191.348 140.75 192.016 140.75ZM204.651 142.227C203.629 142.227 202.748 141.986 202.009 141.503C201.271 141.02 200.703 140.355 200.305 139.507C199.907 138.66 199.708 137.691 199.708 136.602C199.708 135.494 199.912 134.517 200.319 133.669C200.731 132.817 201.304 132.152 202.038 131.673C202.776 131.19 203.638 130.949 204.623 130.949C205.39 130.949 206.081 131.091 206.697 131.375C207.312 131.659 207.817 132.057 208.21 132.568C208.603 133.08 208.847 133.676 208.941 134.358H207.265C207.137 133.861 206.853 133.42 206.413 133.037C205.977 132.649 205.39 132.455 204.651 132.455C203.998 132.455 203.425 132.625 202.933 132.966C202.445 133.302 202.064 133.778 201.789 134.393C201.519 135.004 201.384 135.722 201.384 136.545C201.384 137.388 201.517 138.122 201.782 138.747C202.052 139.372 202.431 139.857 202.919 140.203C203.411 140.549 203.989 140.722 204.651 140.722C205.087 140.722 205.482 140.646 205.838 140.494C206.193 140.343 206.493 140.125 206.74 139.841C206.986 139.557 207.161 139.216 207.265 138.818H208.941C208.847 139.462 208.612 140.042 208.238 140.558C207.869 141.07 207.379 141.477 206.768 141.78C206.162 142.078 205.456 142.227 204.651 142.227ZM216.536 131.091V132.511H210.882V131.091H216.536ZM212.53 128.477H214.206V138.875C214.206 139.348 214.275 139.704 214.412 139.94C214.554 140.172 214.734 140.329 214.952 140.409C215.175 140.485 215.409 140.523 215.655 140.523C215.84 140.523 215.991 140.513 216.11 140.494C216.228 140.471 216.323 140.452 216.394 140.438L216.735 141.943C216.621 141.986 216.462 142.028 216.259 142.071C216.055 142.118 215.797 142.142 215.485 142.142C215.011 142.142 214.547 142.04 214.093 141.837C213.643 141.633 213.269 141.323 212.97 140.906C212.677 140.49 212.53 139.964 212.53 139.33V128.477ZM219.457 142V131.091H221.133V142H219.457ZM220.309 129.273C219.983 129.273 219.701 129.161 219.464 128.939C219.232 128.716 219.116 128.449 219.116 128.136C219.116 127.824 219.232 127.556 219.464 127.334C219.701 127.111 219.983 127 220.309 127C220.636 127 220.915 127.111 221.147 127.334C221.384 127.556 221.503 127.824 221.503 128.136C221.503 128.449 221.384 128.716 221.147 128.939C220.915 129.161 220.636 129.273 220.309 129.273ZM229.035 142.227C228.05 142.227 227.186 141.993 226.443 141.524C225.704 141.055 225.126 140.4 224.71 139.557C224.298 138.714 224.092 137.729 224.092 136.602C224.092 135.466 224.298 134.474 224.71 133.626C225.126 132.779 225.704 132.121 226.443 131.652C227.186 131.183 228.05 130.949 229.035 130.949C230.02 130.949 230.882 131.183 231.62 131.652C232.364 132.121 232.941 132.779 233.353 133.626C233.77 134.474 233.978 135.466 233.978 136.602C233.978 137.729 233.77 138.714 233.353 139.557C232.941 140.4 232.364 141.055 231.62 141.524C230.882 141.993 230.02 142.227 229.035 142.227ZM229.035 140.722C229.783 140.722 230.399 140.53 230.882 140.146C231.365 139.763 231.722 139.259 231.954 138.634C232.186 138.009 232.302 137.331 232.302 136.602C232.302 135.873 232.186 135.194 231.954 134.564C231.722 133.934 231.365 133.425 230.882 133.037C230.399 132.649 229.783 132.455 229.035 132.455C228.287 132.455 227.671 132.649 227.188 133.037C226.706 133.425 226.348 133.934 226.116 134.564C225.884 135.194 225.768 135.873 225.768 136.602C225.768 137.331 225.884 138.009 226.116 138.634C226.348 139.259 226.706 139.763 227.188 140.146C227.671 140.53 228.287 140.722 229.035 140.722ZM238.613 135.438V142H236.937V131.091H238.556V132.795H238.698C238.954 132.241 239.342 131.796 239.863 131.46C240.384 131.119 241.056 130.949 241.88 130.949C242.619 130.949 243.265 131.1 243.819 131.403C244.373 131.702 244.804 132.156 245.112 132.767C245.419 133.373 245.573 134.14 245.573 135.068V142H243.897V135.182C243.897 134.325 243.675 133.657 243.229 133.179C242.784 132.696 242.174 132.455 241.397 132.455C240.862 132.455 240.384 132.571 239.962 132.803C239.546 133.035 239.217 133.373 238.975 133.818C238.734 134.263 238.613 134.803 238.613 135.438ZM256.763 133.534L255.258 133.96C255.163 133.709 255.023 133.465 254.839 133.229C254.659 132.987 254.412 132.788 254.1 132.632C253.787 132.476 253.387 132.398 252.9 132.398C252.232 132.398 251.676 132.552 251.231 132.859C250.79 133.162 250.57 133.548 250.57 134.017C250.57 134.434 250.722 134.763 251.025 135.004C251.328 135.246 251.801 135.447 252.445 135.608L254.064 136.006C255.04 136.242 255.767 136.605 256.245 137.092C256.723 137.575 256.962 138.198 256.962 138.96C256.962 139.585 256.782 140.144 256.422 140.636C256.067 141.129 255.57 141.517 254.931 141.801C254.292 142.085 253.548 142.227 252.701 142.227C251.588 142.227 250.667 141.986 249.938 141.503C249.209 141.02 248.747 140.314 248.553 139.386L250.144 138.989C250.296 139.576 250.582 140.016 251.003 140.31C251.43 140.603 251.986 140.75 252.672 140.75C253.454 140.75 254.074 140.584 254.533 140.253C254.997 139.917 255.229 139.514 255.229 139.045C255.229 138.667 255.097 138.349 254.831 138.094C254.566 137.833 254.159 137.639 253.61 137.511L251.792 137.085C250.793 136.848 250.059 136.482 249.59 135.984C249.126 135.482 248.894 134.855 248.894 134.102C248.894 133.487 249.067 132.942 249.412 132.469C249.763 131.995 250.239 131.624 250.84 131.354C251.446 131.084 252.133 130.949 252.9 130.949C253.979 130.949 254.827 131.186 255.442 131.659C256.063 132.133 256.503 132.758 256.763 133.534Z" fill="#1A2434"/>
</g>
<defs>
<filter id="filter0_d_8_1047" x="-8" y="-8" width="340" height="209" filterUnits="userSpaceOnUse" color-interpolation-filters="sRGB">
<feFlood flood-opacity="0" result="BackgroundImageFix"/>
<feColorMatrix in="SourceAlpha" type="matrix" values="0 0 0 0 0 0 0 0 0 0 0 0 0 0 0 0 0 0 127 0" result="hardAlpha"/>
<feOffset dx="8" dy="8"/>
<feGaussianBlur stdDeviation="8"/>
<feComposite in2="hardAlpha" operator="out"/>
<feColorMatrix type="matrix" values="0 0 0 0 0 0 0 0 0 0 0 0 0 0 0 0 0 0 0.04 0"/>
<feBlend mode="normal" in2="BackgroundImageFix" result="effect1_dropShadow_8_1047"/>
<feBlend mode="normal" in="SourceGraphic" in2="effect1_dropShadow_8_1047" result="shape"/>
</filter>
</defs>
</svg>
