<svg width="308" height="177" viewBox="0 0 308 177" fill="none" xmlns="http://www.w3.org/2000/svg">
<g filter="url(#filter0_d_8_1041)">
<path d="M88.072 89V48.744H78.856V41.32H96.776V89H88.072ZM125.469 89.768C121.671 89.768 118.343 88.744 115.485 86.696C112.626 84.648 110.386 81.768 108.765 78.056C107.186 74.344 106.397 70.0347 106.397 65.128C106.397 60.1787 107.186 55.8693 108.765 52.2C110.343 48.5307 112.562 45.672 115.421 43.624C118.279 41.576 121.607 40.552 125.405 40.552C129.287 40.552 132.637 41.576 135.453 43.624C138.311 45.672 140.551 48.552 142.173 52.264C143.794 55.9333 144.605 60.2213 144.605 65.128C144.605 70.0347 143.794 74.344 142.173 78.056C140.594 81.7253 138.375 84.6053 135.517 86.696C132.658 88.744 129.309 89.768 125.469 89.768ZM125.533 81.832C127.709 81.832 129.565 81.1707 131.101 79.848C132.637 78.4827 133.81 76.5627 134.621 74.088C135.474 71.5707 135.901 68.584 135.901 65.128C135.901 61.672 135.474 58.7067 134.621 56.232C133.81 53.7147 132.615 51.7947 131.037 50.472C129.501 49.1493 127.623 48.488 125.405 48.488C123.271 48.488 121.437 49.1493 119.901 50.472C118.365 51.7947 117.17 53.7147 116.317 56.232C115.506 58.7067 115.101 61.672 115.101 65.128C115.101 68.5413 115.506 71.5067 116.317 74.024C117.17 76.4987 118.365 78.4187 119.901 79.784C121.479 81.1493 123.357 81.832 125.533 81.832ZM170.781 89.768C166.984 89.768 163.656 88.744 160.797 86.696C157.938 84.648 155.698 81.768 154.077 78.056C152.498 74.344 151.709 70.0347 151.709 65.128C151.709 60.1787 152.498 55.8693 154.077 52.2C155.656 48.5307 157.874 45.672 160.733 43.624C163.592 41.576 166.92 40.552 170.717 40.552C174.6 40.552 177.949 41.576 180.765 43.624C183.624 45.672 185.864 48.552 187.485 52.264C189.106 55.9333 189.917 60.2213 189.917 65.128C189.917 70.0347 189.106 74.344 187.485 78.056C185.906 81.7253 183.688 84.6053 180.829 86.696C177.97 88.744 174.621 89.768 170.781 89.768ZM170.845 81.832C173.021 81.832 174.877 81.1707 176.413 79.848C177.949 78.4827 179.122 76.5627 179.933 74.088C180.786 71.5707 181.213 68.584 181.213 65.128C181.213 61.672 180.786 58.7067 179.933 56.232C179.122 53.7147 177.928 51.7947 176.349 50.472C174.813 49.1493 172.936 48.488 170.717 48.488C168.584 48.488 166.749 49.1493 165.213 50.472C163.677 51.7947 162.482 53.7147 161.629 56.232C160.818 58.7067 160.413 61.672 160.413 65.128C160.413 68.5413 160.818 71.5067 161.629 74.024C162.482 76.4987 163.677 78.4187 165.213 79.784C166.792 81.1493 168.669 81.832 170.845 81.832Z" fill="#1A2434"/>
<path d="M197.342 89V40.552H205.726V72.296L202.526 71.336L218.91 54.184H229.342L216.478 68.2L229.597 89H219.998L208.606 70.952L213.598 69.928L203.102 81.192L205.726 76.072V89H197.342Z" fill="#A4074D"/>
<path opacity="0.7" d="M66.3022 131.091C66.217 130.371 65.8714 129.812 65.2653 129.415C64.6592 129.017 63.9159 128.818 63.0352 128.818C62.3913 128.818 61.8278 128.922 61.3448 129.131C60.8666 129.339 60.4926 129.625 60.2227 129.99C59.9575 130.355 59.825 130.769 59.825 131.233C59.825 131.621 59.9173 131.955 60.102 132.234C60.2913 132.509 60.5328 132.739 60.8264 132.923C61.1199 133.103 61.4277 133.252 61.7497 133.371C62.0716 133.484 62.3676 133.577 62.6375 133.648L64.1147 134.045C64.4935 134.145 64.9149 134.282 65.3789 134.457C65.8477 134.633 66.2951 134.872 66.7213 135.175C67.1521 135.473 67.5073 135.857 67.7866 136.325C68.066 136.794 68.2056 137.369 68.2056 138.051C68.2056 138.837 67.9997 139.547 67.5877 140.182C67.1806 140.816 66.584 141.321 65.798 141.695C65.0167 142.069 64.0674 142.256 62.95 142.256C61.9083 142.256 61.0063 142.088 60.244 141.751C59.4864 141.415 58.8898 140.946 58.4542 140.345C58.0234 139.744 57.7795 139.045 57.7227 138.25H59.5409C59.5882 138.799 59.7729 139.254 60.0948 139.614C60.4216 139.969 60.8335 140.234 61.3306 140.409C61.8325 140.58 62.3723 140.665 62.95 140.665C63.6223 140.665 64.226 140.556 64.761 140.338C65.2961 140.116 65.7198 139.808 66.0323 139.415C66.3448 139.017 66.5011 138.553 66.5011 138.023C66.5011 137.54 66.3662 137.147 66.0963 136.844C65.8264 136.541 65.4713 136.295 65.0309 136.105C64.5906 135.916 64.1147 135.75 63.6034 135.608L61.8136 135.097C60.6772 134.77 59.7776 134.304 59.1147 133.697C58.4519 133.091 58.1204 132.298 58.1204 131.318C58.1204 130.504 58.3406 129.794 58.7809 129.188C59.226 128.577 59.8226 128.103 60.5707 127.767C61.3235 127.426 62.164 127.256 63.092 127.256C64.0295 127.256 64.8628 127.424 65.592 127.76C66.3212 128.091 66.8988 128.546 67.325 129.124C67.7558 129.701 67.9831 130.357 68.0068 131.091H66.3022ZM76.0186 131.091V132.511H70.3652V131.091H76.0186ZM72.013 128.477H73.6891V138.875C73.6891 139.348 73.7578 139.704 73.8951 139.94C74.0371 140.172 74.217 140.329 74.4348 140.409C74.6574 140.485 74.8917 140.523 75.138 140.523C75.3226 140.523 75.4741 140.513 75.5925 140.494C75.7109 140.471 75.8056 140.452 75.8766 140.438L76.2175 141.943C76.1039 141.986 75.9453 142.028 75.7417 142.071C75.5381 142.118 75.28 142.142 74.9675 142.142C74.494 142.142 74.03 142.04 73.5755 141.837C73.1256 141.633 72.7516 141.323 72.4533 140.906C72.1597 140.49 72.013 139.964 72.013 139.33V128.477ZM85.8149 137.54V131.091H87.4911V142H85.8149V140.153H85.7013C85.4456 140.707 85.0479 141.179 84.5081 141.567C83.9684 141.95 83.2865 142.142 82.4627 142.142C81.7809 142.142 81.1748 141.993 80.6445 141.695C80.1142 141.392 79.6975 140.937 79.3945 140.331C79.0915 139.72 78.9399 138.951 78.9399 138.023V131.091H80.6161V137.909C80.6161 138.705 80.8386 139.339 81.2837 139.812C81.7335 140.286 82.3064 140.523 83.0024 140.523C83.4191 140.523 83.8429 140.416 84.2738 140.203C84.7094 139.99 85.0739 139.663 85.3675 139.223C85.6658 138.783 85.8149 138.222 85.8149 137.54ZM95.0804 142.227C94.1713 142.227 93.3687 141.998 92.6727 141.538C91.9767 141.074 91.4322 140.421 91.0392 139.578C90.6462 138.731 90.4497 137.729 90.4497 136.574C90.4497 135.428 90.6462 134.434 91.0392 133.591C91.4322 132.748 91.979 132.097 92.6798 131.638C93.3806 131.179 94.1902 130.949 95.1088 130.949C95.819 130.949 96.3801 131.067 96.792 131.304C97.2087 131.536 97.5259 131.801 97.7437 132.099C97.9663 132.393 98.1391 132.634 98.2622 132.824H98.4042V127.455H100.08V142H98.461V140.324H98.2622C98.1391 140.523 97.9639 140.774 97.7366 141.077C97.5093 141.375 97.185 141.643 96.7636 141.879C96.3422 142.111 95.7811 142.227 95.0804 142.227ZM95.3076 140.722C95.98 140.722 96.5482 140.546 97.0122 140.196C97.4762 139.841 97.8289 139.351 98.0704 138.726C98.3119 138.096 98.4326 137.369 98.4326 136.545C98.4326 135.731 98.3143 135.018 98.0775 134.408C97.8408 133.792 97.4904 133.314 97.0264 132.973C96.5624 132.627 95.9895 132.455 95.3076 132.455C94.5974 132.455 94.0056 132.637 93.5321 133.001C93.0633 133.361 92.7106 133.851 92.4738 134.472C92.2418 135.087 92.1258 135.778 92.1258 136.545C92.1258 137.322 92.2442 138.027 92.4809 138.662C92.7224 139.292 93.0775 139.794 93.5463 140.168C94.0198 140.537 94.6069 140.722 95.3076 140.722ZM108.357 142.227C107.306 142.227 106.399 141.995 105.637 141.531C104.879 141.062 104.294 140.409 103.882 139.571C103.475 138.728 103.272 137.748 103.272 136.631C103.272 135.513 103.475 134.528 103.882 133.676C104.294 132.819 104.867 132.152 105.601 131.673C106.34 131.19 107.201 130.949 108.186 130.949C108.755 130.949 109.316 131.044 109.87 131.233C110.424 131.422 110.928 131.73 111.382 132.156C111.837 132.578 112.199 133.136 112.469 133.832C112.739 134.528 112.874 135.385 112.874 136.403V137.114H104.465V135.665H111.169C111.169 135.049 111.046 134.5 110.8 134.017C110.558 133.534 110.213 133.153 109.763 132.874C109.318 132.594 108.792 132.455 108.186 132.455C107.519 132.455 106.941 132.62 106.453 132.952C105.97 133.278 105.599 133.705 105.338 134.23C105.078 134.756 104.948 135.319 104.948 135.92V136.886C104.948 137.71 105.09 138.409 105.374 138.982C105.663 139.55 106.063 139.983 106.574 140.281C107.085 140.575 107.68 140.722 108.357 140.722C108.797 140.722 109.195 140.66 109.55 140.537C109.91 140.409 110.22 140.22 110.48 139.969C110.741 139.713 110.942 139.396 111.084 139.017L112.703 139.472C112.533 140.021 112.246 140.504 111.844 140.92C111.442 141.332 110.944 141.654 110.353 141.886C109.761 142.114 109.095 142.227 108.357 142.227ZM117.5 135.438V142H115.824V131.091H117.443V132.795H117.585C117.841 132.241 118.229 131.796 118.75 131.46C119.271 131.119 119.943 130.949 120.767 130.949C121.505 130.949 122.152 131.1 122.706 131.403C123.26 131.702 123.69 132.156 123.998 132.767C124.306 133.373 124.46 134.14 124.46 135.068V142H122.784V135.182C122.784 134.325 122.561 133.657 122.116 133.179C121.671 132.696 121.06 132.455 120.284 132.455C119.749 132.455 119.271 132.571 118.849 132.803C118.432 133.035 118.103 133.373 117.862 133.818C117.62 134.263 117.5 134.803 117.5 135.438ZM132.667 131.091V132.511H127.014V131.091H132.667ZM128.661 128.477H130.338V138.875C130.338 139.348 130.406 139.704 130.544 139.94C130.686 140.172 130.865 140.329 131.083 140.409C131.306 140.485 131.54 140.523 131.786 140.523C131.971 140.523 132.123 140.513 132.241 140.494C132.359 140.471 132.454 140.452 132.525 140.438L132.866 141.943C132.752 141.986 132.594 142.028 132.39 142.071C132.186 142.118 131.928 142.142 131.616 142.142C131.142 142.142 130.678 142.04 130.224 141.837C129.774 141.633 129.4 141.323 129.102 140.906C128.808 140.49 128.661 139.964 128.661 139.33V128.477ZM143.12 133.534L141.615 133.96C141.52 133.709 141.38 133.465 141.196 133.229C141.016 132.987 140.769 132.788 140.457 132.632C140.144 132.476 139.744 132.398 139.257 132.398C138.589 132.398 138.033 132.552 137.588 132.859C137.147 133.162 136.927 133.548 136.927 134.017C136.927 134.434 137.079 134.763 137.382 135.004C137.685 135.246 138.158 135.447 138.802 135.608L140.421 136.006C141.397 136.242 142.124 136.605 142.602 137.092C143.08 137.575 143.319 138.198 143.319 138.96C143.319 139.585 143.139 140.144 142.779 140.636C142.424 141.129 141.927 141.517 141.288 141.801C140.649 142.085 139.905 142.227 139.058 142.227C137.945 142.227 137.024 141.986 136.295 141.503C135.566 141.02 135.104 140.314 134.91 139.386L136.501 138.989C136.653 139.576 136.939 140.016 137.36 140.31C137.787 140.603 138.343 140.75 139.029 140.75C139.811 140.75 140.431 140.584 140.89 140.253C141.354 139.917 141.586 139.514 141.586 139.045C141.586 138.667 141.454 138.349 141.189 138.094C140.923 137.833 140.516 137.639 139.967 137.511L138.149 137.085C137.15 136.848 136.416 136.482 135.947 135.984C135.483 135.482 135.251 134.855 135.251 134.102C135.251 133.487 135.424 132.942 135.769 132.469C136.12 131.995 136.596 131.624 137.197 131.354C137.803 131.084 138.49 130.949 139.257 130.949C140.336 130.949 141.184 131.186 141.799 131.659C142.42 132.133 142.86 132.758 143.12 133.534ZM154.739 142L151.415 131.091H153.176L155.534 139.443H155.648L157.978 131.091H159.767L162.068 139.415H162.182L164.54 131.091H166.301L162.978 142H161.33L158.943 133.619H158.773L156.387 142H154.739ZM172.978 142.227C171.993 142.227 171.129 141.993 170.386 141.524C169.647 141.055 169.069 140.4 168.653 139.557C168.241 138.714 168.035 137.729 168.035 136.602C168.035 135.466 168.241 134.474 168.653 133.626C169.069 132.779 169.647 132.121 170.386 131.652C171.129 131.183 171.993 130.949 172.978 130.949C173.963 130.949 174.825 131.183 175.563 131.652C176.307 132.121 176.884 132.779 177.296 133.626C177.713 134.474 177.921 135.466 177.921 136.602C177.921 137.729 177.713 138.714 177.296 139.557C176.884 140.4 176.307 141.055 175.563 141.524C174.825 141.993 173.963 142.227 172.978 142.227ZM172.978 140.722C173.726 140.722 174.342 140.53 174.825 140.146C175.308 139.763 175.665 139.259 175.897 138.634C176.129 138.009 176.245 137.331 176.245 136.602C176.245 135.873 176.129 135.194 175.897 134.564C175.665 133.934 175.308 133.425 174.825 133.037C174.342 132.649 173.726 132.455 172.978 132.455C172.23 132.455 171.614 132.649 171.131 133.037C170.648 133.425 170.291 133.934 170.059 134.564C169.827 135.194 169.711 135.873 169.711 136.602C169.711 137.331 169.827 138.009 170.059 138.634C170.291 139.259 170.648 139.763 171.131 140.146C171.614 140.53 172.23 140.722 172.978 140.722ZM180.88 142V131.091H182.499V132.739H182.613C182.812 132.199 183.171 131.761 183.692 131.425C184.213 131.089 184.8 130.92 185.454 130.92C185.577 130.92 185.731 130.923 185.915 130.928C186.1 130.932 186.24 130.939 186.334 130.949V132.653C186.278 132.639 186.147 132.618 185.944 132.589C185.745 132.556 185.534 132.54 185.312 132.54C184.781 132.54 184.308 132.651 183.891 132.874C183.479 133.091 183.153 133.394 182.911 133.783C182.674 134.166 182.556 134.604 182.556 135.097V142H180.88ZM190.397 127.455V142H188.721V127.455H190.397ZM197.987 142.227C197.078 142.227 196.275 141.998 195.579 141.538C194.883 141.074 194.338 140.421 193.945 139.578C193.552 138.731 193.356 137.729 193.356 136.574C193.356 135.428 193.552 134.434 193.945 133.591C194.338 132.748 194.885 132.097 195.586 131.638C196.287 131.179 197.096 130.949 198.015 130.949C198.725 130.949 199.286 131.067 199.698 131.304C200.115 131.536 200.432 131.801 200.65 132.099C200.872 132.393 201.045 132.634 201.168 132.824H201.31V127.455H202.987V142H201.367V140.324H201.168C201.045 140.523 200.87 140.774 200.643 141.077C200.416 141.375 200.091 141.643 199.67 141.879C199.248 142.111 198.687 142.227 197.987 142.227ZM198.214 140.722C198.886 140.722 199.454 140.546 199.918 140.196C200.382 139.841 200.735 139.351 200.977 138.726C201.218 138.096 201.339 137.369 201.339 136.545C201.339 135.731 201.221 135.018 200.984 134.408C200.747 133.792 200.397 133.314 199.933 132.973C199.469 132.627 198.896 132.455 198.214 132.455C197.504 132.455 196.912 132.637 196.438 133.001C195.97 133.361 195.617 133.851 195.38 134.472C195.148 135.087 195.032 135.778 195.032 136.545C195.032 137.322 195.15 138.027 195.387 138.662C195.629 139.292 195.984 139.794 196.453 140.168C196.926 140.537 197.513 140.722 198.214 140.722ZM209.161 142L205.837 131.091H207.598L209.956 139.443H210.07L212.399 131.091H214.189L216.49 139.415H216.604L218.962 131.091H220.723L217.399 142H215.752L213.365 133.619H213.195L210.808 142H209.161ZM223.339 142V131.091H225.015V142H223.339ZM224.191 129.273C223.865 129.273 223.583 129.161 223.346 128.939C223.114 128.716 222.998 128.449 222.998 128.136C222.998 127.824 223.114 127.556 223.346 127.334C223.583 127.111 223.865 127 224.191 127C224.518 127 224.798 127.111 225.03 127.334C225.266 127.556 225.385 127.824 225.385 128.136C225.385 128.449 225.266 128.716 225.03 128.939C224.798 129.161 224.518 129.273 224.191 129.273ZM232.605 142.227C231.695 142.227 230.893 141.998 230.197 141.538C229.501 141.074 228.956 140.421 228.563 139.578C228.17 138.731 227.974 137.729 227.974 136.574C227.974 135.428 228.17 134.434 228.563 133.591C228.956 132.748 229.503 132.097 230.204 131.638C230.905 131.179 231.714 130.949 232.633 130.949C233.343 130.949 233.904 131.067 234.316 131.304C234.733 131.536 235.05 131.801 235.268 132.099C235.49 132.393 235.663 132.634 235.786 132.824H235.928V127.455H237.605V142H235.985V140.324H235.786C235.663 140.523 235.488 140.774 235.261 141.077C235.034 141.375 234.709 141.643 234.288 141.879C233.866 142.111 233.305 142.227 232.605 142.227ZM232.832 140.722C233.504 140.722 234.072 140.546 234.536 140.196C235 139.841 235.353 139.351 235.595 138.726C235.836 138.096 235.957 137.369 235.957 136.545C235.957 135.731 235.838 135.018 235.602 134.408C235.365 133.792 235.015 133.314 234.551 132.973C234.087 132.627 233.514 132.455 232.832 132.455C232.122 132.455 231.53 132.637 231.056 133.001C230.588 133.361 230.235 133.851 229.998 134.472C229.766 135.087 229.65 135.778 229.65 136.545C229.65 137.322 229.768 138.027 230.005 138.662C230.247 139.292 230.602 139.794 231.07 140.168C231.544 140.537 232.131 140.722 232.832 140.722ZM245.881 142.227C244.83 142.227 243.923 141.995 243.161 141.531C242.403 141.062 241.818 140.409 241.407 139.571C240.999 138.728 240.796 137.748 240.796 136.631C240.796 135.513 240.999 134.528 241.407 133.676C241.818 132.819 242.391 132.152 243.125 131.673C243.864 131.19 244.726 130.949 245.711 130.949C246.279 130.949 246.84 131.044 247.394 131.233C247.948 131.422 248.452 131.73 248.907 132.156C249.361 132.578 249.723 133.136 249.993 133.832C250.263 134.528 250.398 135.385 250.398 136.403V137.114H241.989V135.665H248.693C248.693 135.049 248.57 134.5 248.324 134.017C248.083 133.534 247.737 133.153 247.287 132.874C246.842 132.594 246.317 132.455 245.711 132.455C245.043 132.455 244.465 132.62 243.978 132.952C243.495 133.278 243.123 133.705 242.863 134.23C242.602 134.756 242.472 135.319 242.472 135.92V136.886C242.472 137.71 242.614 138.409 242.898 138.982C243.187 139.55 243.587 139.983 244.098 140.281C244.61 140.575 245.204 140.722 245.881 140.722C246.321 140.722 246.719 140.66 247.074 140.537C247.434 140.409 247.744 140.22 248.005 139.969C248.265 139.713 248.466 139.396 248.608 139.017L250.228 139.472C250.057 140.021 249.771 140.504 249.368 140.92C248.966 141.332 248.469 141.654 247.877 141.886C247.285 142.114 246.62 142.227 245.881 142.227Z" fill="#1A2434"/>
</g>
<defs>
<filter id="filter0_d_8_1041" x="-8" y="-8" width="340" height="209" filterUnits="userSpaceOnUse" color-interpolation-filters="sRGB">
<feFlood flood-opacity="0" result="BackgroundImageFix"/>
<feColorMatrix in="SourceAlpha" type="matrix" values="0 0 0 0 0 0 0 0 0 0 0 0 0 0 0 0 0 0 127 0" result="hardAlpha"/>
<feOffset dx="8" dy="8"/>
<feGaussianBlur stdDeviation="8"/>
<feComposite in2="hardAlpha" operator="out"/>
<feColorMatrix type="matrix" values="0 0 0 0 0 0 0 0 0 0 0 0 0 0 0 0 0 0 0.04 0"/>
<feBlend mode="normal" in2="BackgroundImageFix" result="effect1_dropShadow_8_1041"/>
<feBlend mode="normal" in="SourceGraphic" in2="effect1_dropShadow_8_1041" result="shape"/>
</filter>
</defs>
</svg>
